<?xml version="1.0" encoding="UTF-8"?>
<svg version="1.1" xmlns="http://www.w3.org/2000/svg" width="500" height="500">
<path d="M0 0 C4.03424256 0.00477155 8.06843925 -0.00781314 12.10266662 -0.01801741 C19.98665588 -0.03513407 27.87056519 -0.03606022 35.75456819 -0.03080451 C42.16945003 -0.02674776 48.58430841 -0.02822414 54.99918914 -0.03355277 C55.91544213 -0.03430119 56.83169513 -0.03504961 57.77571337 -0.03582071 C59.6376552 -0.03735234 61.49959703 -0.03889069 63.36153886 -0.04043568 C80.78742439 -0.05413523 98.21326491 -0.04874125 115.6391494 -0.03725047 C131.54202057 -0.02732354 147.44477529 -0.04025396 163.3476285 -0.06418466 C179.71986335 -0.08863395 196.0920441 -0.09816907 212.46429682 -0.09153193 C221.63873772 -0.08805228 230.81308918 -0.09018826 239.98751616 -0.10778296 C247.798409 -0.12257822 255.60914942 -0.12304565 263.4200395 -0.10571205 C267.39629702 -0.09725896 271.37228313 -0.09491089 275.34852576 -0.1103636 C309.62311418 -0.23374539 337.07701783 4.52647897 362.28331542 29.40683305 C382.76995514 49.85407539 386.74812335 76.07383816 386.82432479 103.68050015 C386.82583791 106.67780729 386.81629041 109.67503555 386.80621409 112.67232311 C386.79705024 116.71604467 386.81118865 120.75970101 386.82213378 124.80340898 C386.83980436 132.69757192 386.83613062 140.59158168 386.82448322 148.48575032 C386.81540362 154.90864545 386.81424432 161.33149802 386.81857848 167.75439775 C386.81919141 168.67288415 386.81980435 169.59137055 386.82043585 170.53768986 C386.82171491 172.40430257 386.82301177 174.27091526 386.82432622 176.13752794 C386.83569844 193.58967766 386.82267126 211.04174297 386.80112475 228.49387884 C386.78325684 243.42812195 386.7863619 258.36224063 386.8047998 273.29648149 C386.82626611 290.69149605 386.83460011 308.08643687 386.82235074 325.48146284 C386.82107671 327.34073133 386.81981922 329.19999984 386.81857848 331.05926836 C386.81765283 332.4310166 386.81765283 332.4310166 386.81670848 333.83047694 C386.81327281 340.23636913 386.81904517 346.64221405 386.82849669 353.04809892 C386.83978236 360.86805199 386.83653999 368.68784472 386.81537372 376.50777972 C386.80495078 380.48810975 386.80058921 384.46817368 386.81397033 388.44850099 C386.90684639 418.60442898 384.11535014 444.37956021 364.28331542 468.40683305 C363.40933105 469.51864946 363.40933105 469.51864946 362.51769042 470.6529268 C351.73526706 483.7232173 333.79766017 493.7168078 317.28331542 497.40683305 C316.18562205 497.65697695 315.08792869 497.90712085 313.95697188 498.16484487 C299.41623141 501.15450205 284.72706537 500.84392335 269.95561862 500.81366611 C266.01271639 500.80888403 262.06986058 500.82148831 258.12697387 500.83168352 C250.42573678 500.84877994 242.7245816 500.84973061 235.02333048 500.84447061 C228.75582472 500.8404101 222.48834295 500.84189466 216.22083831 500.84721887 C215.32486127 500.84796729 214.42888422 500.84871572 213.50575636 500.84948682 C211.68488806 500.85101848 209.86401976 500.85255683 208.04315147 500.85410178 C191.01063286 500.86779398 173.97816033 500.86241253 156.9456428 500.85091657 C141.4096076 500.8409901 125.87369159 500.8539206 110.33767477 500.87785076 C94.33375071 500.90231336 78.32988201 500.91183196 62.32593966 500.90519804 C53.36161543 500.90172136 44.39738275 500.9038344 35.43307281 500.92144907 C27.80124769 500.9362611 20.16957858 500.93669029 12.53775623 500.91937815 C8.65439705 500.91093864 4.77131543 500.90854255 0.88797164 500.92402971 C-31.21559719 501.04284314 -61.07164005 498.05276617 -85.19324708 474.92245805 C-86.02598145 474.0923018 -86.85871583 473.26214555 -87.71668458 472.40683305 C-88.48754395 471.6798018 -89.25840333 470.95277055 -90.05262208 470.20370805 C-91.71668458 468.40683305 -91.71668458 468.40683305 -91.71668458 466.40683305 C-92.37668458 466.40683305 -93.03668458 466.40683305 -93.71668458 466.40683305 C-103.94565679 454.16088041 -110.41074435 438.07198071 -112.71668458 422.40683305 C-112.88839771 421.29684827 -113.06011085 420.18686349 -113.23702741 419.04324281 C-113.97361343 413.05114811 -113.86474404 407.04169767 -113.8638556 401.0133394 C-113.86715972 399.65537883 -113.87088644 398.29741924 -113.87499708 396.93946087 C-113.88496311 393.22222549 -113.88872513 389.50500626 -113.89138639 385.78775942 C-113.89530562 381.7724765 -113.90488285 377.75720616 -113.91359925 373.74193132 C-113.9333193 364.05135283 -113.94342474 354.36077337 -113.95232704 344.67017984 C-113.95671773 340.09823298 -113.96208255 335.52628726 -113.96731591 330.95434129 C-113.98432462 315.74119753 -113.9988162 300.52805447 -114.00606465 285.31490266 C-114.00797431 281.3710995 -114.00989468 277.42729635 -114.0118506 273.48349321 C-114.01233434 272.50336994 -114.01281808 271.52324667 -114.01331647 270.5134227 C-114.02160718 254.6553172 -114.04692948 238.79728736 -114.07943127 222.93921486 C-114.11258203 206.63052455 -114.13052068 190.32187258 -114.13370889 174.01314843 C-114.13586671 164.8676387 -114.14450792 155.72223928 -114.17017007 146.57676256 C-114.19198699 138.78398974 -114.19987394 130.99135403 -114.19020329 123.19855413 C-114.18569001 119.23044145 -114.18736884 115.26261099 -114.20696473 111.2945379 C-114.35536416 79.41886488 -110.92684352 51.27636616 -87.72840333 27.32870805 C-63.27875713 3.07927186 -32.77424265 -0.0654249 0 0 Z " fill="#0B1014" transform="translate(113.71668457984924,-0.40683305263519287)"/>
<path d="M0 0 C28.13766939 25.28085456 46.73931029 58.38957249 49.80859375 96.5234375 C51.73498105 137.11170987 39.35974184 172.68984617 12.80859375 203.5234375 C15.46785283 209.76303981 20.36816148 214.63835996 25.80859375 218.5234375 C29.30346147 219.12501309 32.07085303 219.02199493 35.5703125 218.51953125 C42.62343613 218.52803924 47.75058234 223.00785067 52.58258057 227.75531006 C53.25819031 228.43901672 53.93380005 229.12272339 54.62988281 229.82714844 C55.36589722 230.55615356 56.10191162 231.28515869 56.86022949 232.03625488 C59.27500893 234.43352085 61.67496731 236.84501321 64.07421875 239.2578125 C65.7565573 240.93745426 67.43948906 242.61650205 69.12298584 244.29498291 C72.64289388 247.80900484 76.15549397 251.33013105 79.66308594 254.85644531 C84.15071641 259.3668639 88.65606613 263.8590859 93.16705704 268.34612656 C96.64363558 271.80822365 100.11059698 275.27982548 103.57476044 278.75434113 C105.231959 280.41420044 106.89211318 282.07111446 108.55530548 283.72496796 C110.88167022 286.04112931 113.19475385 288.36980792 115.50488281 290.70214844 C116.18858948 291.37775818 116.87229614 292.05336792 117.57672119 292.74945068 C123.45370217 298.73108409 127.17733994 305.21887264 128.80859375 313.5234375 C128.53689668 322.08189519 125.75949643 327.97550632 119.55859375 333.8984375 C113.06664633 339.28897786 107.72715836 339.87083809 99.49609375 339.30078125 C92.10326298 337.16244793 86.79947708 331.90487895 81.62109375 326.4609375 C77.83635597 322.53556465 74.10075324 318.90237157 69.80859375 315.5234375 C68.13150456 313.86725895 66.4663843 312.19893326 64.80859375 310.5234375 C62.98383402 308.71267825 61.15821865 306.90281733 59.33154297 305.09399414 C54.0249453 299.83632806 48.72591479 294.57110446 43.43119621 289.30147648 C40.23524933 286.12121918 37.03653965 282.94384401 33.83154297 279.77270508 C30.71987151 276.69368127 27.61563396 273.60733871 24.51636124 270.51583672 C23.33807474 269.34307494 22.15715947 268.17294797 20.97353745 267.00557137 C19.31754553 265.37143217 17.67125773 263.7280654 16.02685547 262.08227539 C15.54055664 261.60676239 15.05425781 261.13124939 14.55322266 260.6413269 C10.36484655 256.41467411 8.00995532 252.60417377 7.43359375 246.6484375 C7.58835577 242.19473046 9.06462491 238.59269813 10.80859375 234.5234375 C10.14859375 234.5234375 9.48859375 234.5234375 8.80859375 234.5234375 C7.45472439 232.87340922 6.12181233 231.2059988 4.80859375 229.5234375 C4.14859375 229.1934375 3.48859375 228.8634375 2.80859375 228.5234375 C2.80859375 227.8634375 2.80859375 227.2034375 2.80859375 226.5234375 C1.81859375 226.1934375 0.82859375 225.8634375 -0.19140625 225.5234375 C-0.19140625 224.8634375 -0.19140625 224.2034375 -0.19140625 223.5234375 C-1.18140625 223.1934375 -2.17140625 222.8634375 -3.19140625 222.5234375 C-3.19140625 221.8634375 -3.19140625 221.2034375 -3.19140625 220.5234375 C-7.38140023 222.00042981 -10.84911441 224.1792232 -14.50390625 226.6484375 C-45.74753296 247.07521395 -84.03363306 255.03731112 -120.93701172 248.07250977 C-146.34919005 242.49667509 -169.81297155 231.02428652 -188.60546875 212.96875 C-191.12029565 210.51473432 -191.12029565 210.51473432 -193.765625 208.5078125 C-198.27910024 204.81562986 -201.62591267 200.10683116 -205.19140625 195.5234375 C-205.98933594 194.52570313 -206.78726563 193.52796875 -207.609375 192.5 C-229.63307249 164.04942712 -238.69026832 126.00293707 -234.37084961 90.56030273 C-232.94643107 80.22734512 -230.63068228 70.36763646 -227.19140625 60.5234375 C-226.96582031 59.87681152 -226.74023438 59.23018555 -226.5078125 58.56396484 C-220.16509314 40.81241343 -209.88217969 25.96223772 -197.94921875 11.55078125 C-197.46855957 10.9693335 -196.98790039 10.38788574 -196.49267578 9.78881836 C-195.19140625 8.5234375 -195.19140625 8.5234375 -193.19140625 8.5234375 C-193.19140625 7.8634375 -193.19140625 7.2034375 -193.19140625 6.5234375 C-190.72623912 3.97563907 -187.91698563 1.78660211 -185.19140625 -0.4765625 C-184.43214844 -1.12238281 -183.67289063 -1.76820312 -182.890625 -2.43359375 C-130.52386625 -45.88686164 -51.34558083 -43.48734186 0 0 Z " fill="#0B141F" transform="translate(310.19140625,89.4765625)"/>
<path d="M0 0 C28.13766939 25.28085456 46.73931029 58.38957249 49.80859375 96.5234375 C51.73498105 137.11170987 39.35974184 172.68984617 12.80859375 203.5234375 C15.46785283 209.76303981 20.36816148 214.63835996 25.80859375 218.5234375 C29.30346147 219.12501309 32.07085303 219.02199493 35.5703125 218.51953125 C42.62343613 218.52803924 47.75058234 223.00785067 52.58258057 227.75531006 C53.25819031 228.43901672 53.93380005 229.12272339 54.62988281 229.82714844 C55.36589722 230.55615356 56.10191162 231.28515869 56.86022949 232.03625488 C59.27500893 234.43352085 61.67496731 236.84501321 64.07421875 239.2578125 C65.7565573 240.93745426 67.43948906 242.61650205 69.12298584 244.29498291 C72.64289388 247.80900484 76.15549397 251.33013105 79.66308594 254.85644531 C84.15071641 259.3668639 88.65606613 263.8590859 93.16705704 268.34612656 C96.64363558 271.80822365 100.11059698 275.27982548 103.57476044 278.75434113 C105.231959 280.41420044 106.89211318 282.07111446 108.55530548 283.72496796 C110.88167022 286.04112931 113.19475385 288.36980792 115.50488281 290.70214844 C116.18858948 291.37775818 116.87229614 292.05336792 117.57672119 292.74945068 C123.45370217 298.73108409 127.17733994 305.21887264 128.80859375 313.5234375 C128.53689668 322.08189519 125.75949643 327.97550632 119.55859375 333.8984375 C113.06664633 339.28897786 107.72715836 339.87083809 99.49609375 339.30078125 C92.10326298 337.16244793 86.79947708 331.90487895 81.62109375 326.4609375 C77.83635597 322.53556465 74.10075324 318.90237157 69.80859375 315.5234375 C68.13150456 313.86725895 66.4663843 312.19893326 64.80859375 310.5234375 C62.98383402 308.71267825 61.15821865 306.90281733 59.33154297 305.09399414 C54.0249453 299.83632806 48.72591479 294.57110446 43.43119621 289.30147648 C40.23524933 286.12121918 37.03653965 282.94384401 33.83154297 279.77270508 C30.71987151 276.69368127 27.61563396 273.60733871 24.51636124 270.51583672 C23.33807474 269.34307494 22.15715947 268.17294797 20.97353745 267.00557137 C19.31754553 265.37143217 17.67125773 263.7280654 16.02685547 262.08227539 C15.54055664 261.60676239 15.05425781 261.13124939 14.55322266 260.6413269 C10.36484655 256.41467411 8.00995532 252.60417377 7.43359375 246.6484375 C7.58835577 242.19473046 9.06462491 238.59269813 10.80859375 234.5234375 C10.14859375 234.5234375 9.48859375 234.5234375 8.80859375 234.5234375 C7.45472439 232.87340922 6.12181233 231.2059988 4.80859375 229.5234375 C4.14859375 229.1934375 3.48859375 228.8634375 2.80859375 228.5234375 C2.80859375 227.8634375 2.80859375 227.2034375 2.80859375 226.5234375 C1.81859375 226.1934375 0.82859375 225.8634375 -0.19140625 225.5234375 C-0.19140625 224.8634375 -0.19140625 224.2034375 -0.19140625 223.5234375 C-1.18140625 223.1934375 -2.17140625 222.8634375 -3.19140625 222.5234375 C-3.19140625 221.8634375 -3.19140625 221.2034375 -3.19140625 220.5234375 C-7.38140023 222.00042981 -10.84911441 224.1792232 -14.50390625 226.6484375 C-45.74753296 247.07521395 -84.03363306 255.03731112 -120.93701172 248.07250977 C-146.34919005 242.49667509 -169.81297155 231.02428652 -188.60546875 212.96875 C-191.12029565 210.51473432 -191.12029565 210.51473432 -193.765625 208.5078125 C-198.27910024 204.81562986 -201.62591267 200.10683116 -205.19140625 195.5234375 C-205.98933594 194.52570313 -206.78726563 193.52796875 -207.609375 192.5 C-229.63307249 164.04942712 -238.69026832 126.00293707 -234.37084961 90.56030273 C-232.94643107 80.22734512 -230.63068228 70.36763646 -227.19140625 60.5234375 C-226.96582031 59.87681152 -226.74023438 59.23018555 -226.5078125 58.56396484 C-220.16509314 40.81241343 -209.88217969 25.96223772 -197.94921875 11.55078125 C-197.46855957 10.9693335 -196.98790039 10.38788574 -196.49267578 9.78881836 C-195.19140625 8.5234375 -195.19140625 8.5234375 -193.19140625 8.5234375 C-193.19140625 7.8634375 -193.19140625 7.2034375 -193.19140625 6.5234375 C-190.72623912 3.97563907 -187.91698563 1.78660211 -185.19140625 -0.4765625 C-184.43214844 -1.12238281 -183.67289063 -1.76820312 -182.890625 -2.43359375 C-130.52386625 -45.88686164 -51.34558083 -43.48734186 0 0 Z M-114.19140625 -11.4765625 C-115.31289062 -11.28191406 -116.434375 -11.08726563 -117.58984375 -10.88671875 C-126.6747329 -9.16161058 -134.77838441 -6.2024601 -143.19140625 -2.4765625 C-144.22136719 -2.02410156 -145.25132812 -1.57164063 -146.3125 -1.10546875 C-174.98339385 12.3352026 -196.95064145 38.22845199 -208.19140625 67.5234375 C-215.0039419 87.95328087 -217.21004095 111.42948852 -212.19140625 132.5234375 C-212.03542969 133.19358887 -211.87945312 133.86374023 -211.71875 134.55419922 C-207.02621779 154.26717942 -198.39557801 172.03997418 -185.19140625 187.5234375 C-184.60359375 188.23371094 -184.01578125 188.94398438 -183.41015625 189.67578125 C-163.20922214 213.59552369 -132.94866087 226.83120553 -102.19140625 229.5234375 C-81.78677015 231.17287722 -60.63570857 227.47045266 -42.19140625 218.5234375 C-41.51706543 218.20391113 -40.84272461 217.88438477 -40.14794922 217.55517578 C-10.17308449 203.21166811 11.69509391 178.36118421 23.18359375 147.2109375 C30.93332202 124.60018019 31.74712476 98.37539632 24.80859375 75.5234375 C24.59960449 74.8128418 24.39061523 74.10224609 24.17529297 73.37011719 C18.56459496 54.71822372 8.09211834 35.97606454 -6.19140625 22.5234375 C-6.85140625 22.5234375 -7.51140625 22.5234375 -8.19140625 22.5234375 C-8.19140625 21.8634375 -8.19140625 21.2034375 -8.19140625 20.5234375 C-32.06882518 -2.51008097 -64.89525902 -13.92077949 -97.6875 -13.6328125 C-103.28724825 -13.38310243 -108.69081456 -12.52023085 -114.19140625 -11.4765625 Z " fill="#E4B143" transform="translate(310.19140625,89.4765625)"/>
<path d="M0 0 C4.47499272 2.3324665 8.2284001 5.15334327 10 10 C9.89867453 11.41855652 9.77255526 12.83550472 9.625 14.25 C9.75098114 16.72022249 9.75098114 16.72022249 11 19 C15.16007674 21.907958 19.68212107 23.77674474 24.32666016 25.78710938 C27.35983747 27.16325777 30.30551152 28.66871481 33.26171875 30.203125 C34.33413818 30.75766357 35.40655762 31.31220215 36.51147461 31.88354492 C38.65170246 32.99310745 40.78929563 34.10776848 42.92407227 35.2277832 C43.91334717 35.73140381 44.90262207 36.23502441 45.921875 36.75390625 C47.24590332 37.43948608 47.24590332 37.43948608 48.59667969 38.13891602 C51.28422457 39.10183463 52.39128044 39.07575696 55 38 C56.02019573 37.0206121 57.02149805 36.02104551 58 35 C63.58240452 33.13919849 69.05131969 33.06174652 74.375 35.625 C78.6481748 39.49120577 81.20485117 42.64621483 81.5 48.5 C81.27397305 52.98286783 80.01242101 55.59120781 77 59 C75.9275 59.598125 74.855 60.19625 73.75 60.8125 C72.8425 61.534375 71.935 62.25625 71 63 C70.48391276 70.42254885 71.567085 77.70423798 72.5 85.0625 C73.38710195 92.08339244 74.20806836 98.9170064 74 106 C74.86625 106.0825 75.7325 106.165 76.625 106.25 C81.46411116 107.32535804 84.60519362 109.41921944 87.875 113.125 C89.56358494 117.44027261 89.66646131 121.42997961 89 126 C87.02277707 129.88383075 84.91322591 132.99050561 81 135 C76.41528279 136.15063914 72.58847508 136.56955704 68.25 134.5 C64.56613795 132.79975598 63.76582145 132.90541056 60 134 C58.20204994 134.84442743 56.43562213 135.75798771 54.69921875 136.72265625 C53.72275391 137.26083984 52.74628906 137.79902344 51.74023438 138.35351562 C50.73283203 138.91748047 49.72542969 139.48144531 48.6875 140.0625 C47.66076172 140.63033203 46.63402344 141.19816406 45.57617188 141.78320312 C43.0473982 143.18284995 40.52222964 144.58860511 38 146 C38.33 146.99 38.66 147.98 39 149 C39.63111912 154.33864696 39.41490779 158.93005985 36.38671875 163.48828125 C33.17026664 166.99466707 29.44669442 168.75617135 24.7265625 169.2265625 C19.30353605 168.98595041 16.15428104 167.10837276 12.21484375 163.47265625 C11 162 11 162 11 160 C4.19762626 162.57689923 -2.37648178 165.52118582 -8.90844727 168.71313477 C-11.80111914 170.10033247 -13.74815412 171 -17 171 C-16.95359375 171.65226563 -16.9071875 172.30453125 -16.859375 172.9765625 C-16.61569393 178.87712549 -16.86578085 182.41883824 -21 187 C-24.83833721 190.38676812 -28.63654253 190.51271703 -33.56640625 190.3515625 C-38.30696074 189.66673119 -40.95563656 186.98791136 -44.3125 183.8125 C-46.62968069 179.95053219 -47.22269208 176.48565466 -47 172 C-45.6875 168.8125 -45.6875 168.8125 -44 166 C-43.30028027 164.01132287 -42.62335603 162.01391949 -42 160 C-42.66 159.67 -43.32 159.34 -44 159 C-41 159 -41 159 -39 160 C-39 160.66 -39 161.32 -39 162 C-37.35 162 -35.7 162 -34 162 C-33.67 161.01 -33.34 160.02 -33 159 C-32.67 159.99 -32.34 160.98 -32 162 C-31.67 161.67 -31.34 161.34 -31 161 C-26.50397765 161.33932244 -23.26168953 161.73831047 -20 165 C-20 165.66 -20 166.32 -20 167 C-16.04594569 165.37827522 -12.11645199 163.70932147 -8.2019043 161.99511719 C-6.86994731 161.41978151 -5.53234158 160.85733357 -4.18920898 160.30859375 C3.82228343 157.28159462 3.82228343 157.28159462 9.55615234 151.32324219 C10.29920078 148.84641408 10.79079404 146.57339551 11 144 C-1.52196231 135.75048619 -14.04286233 127.55321295 -27 120 C-27.33 122.31 -27.66 124.62 -28 127 C-28.33 126.34 -28.66 125.68 -29 125 C-29.66 125 -30.32 125 -31 125 C-31.103125 124.236875 -31.20625 123.47375 -31.3125 122.6875 C-32.04364039 119.82940576 -32.76951913 118.84257115 -35 117 C-34.34 116.34 -33.68 115.68 -33 115 C-34.98 115 -36.96 115 -39 115 C-37.125 110.25 -37.125 110.25 -36 108 C-35.01 107.67 -34.02 107.34 -33 107 C-33.99 106.01 -34.98 105.02 -36 104 C-35.505 102.515 -35.505 102.515 -35 101 C-34.34 101 -33.68 101 -33 101 C-33 101.66 -33 102.32 -33 103 C-22.983048 102.41410281 -14.7021726 99.10682219 -5.60498047 95.09985352 C-4.69377441 94.70338623 -3.78256836 94.30691895 -2.84375 93.8984375 C-2.03099609 93.53411621 -1.21824219 93.16979492 -0.38085938 92.79443359 C2.23079056 91.92299093 4.26455238 91.89924997 7 92 C8.67343448 91.70250054 10.34305915 91.37872934 12 91 C12 90.01 12 89.02 12 88 C11.34 87.67 10.68 87.34 10 87 C10.78767592 85.06087416 11.5802867 83.12375234 12.375 81.1875 C13.03628906 79.56908203 13.03628906 79.56908203 13.7109375 77.91796875 C15 75 15 75 17 72 C19.07421875 72.05859375 19.07421875 72.05859375 21.6875 72.4375 C29.79426291 72.71483663 35.1215012 67.77887067 41.32617188 63.16552734 C43.41423285 61.71155956 45.63257029 60.69164301 47.9375 59.625 C49.81393465 58.66190568 49.81393465 58.66190568 51 57 C51.65078596 52.91779718 51.47019514 49.09461597 51 45 C50.18160645 44.75668945 49.36321289 44.51337891 48.52001953 44.26269531 C44.36241715 42.77128738 40.58606088 40.84305295 36.6796875 38.796875 C35.07718338 37.9732566 33.47430762 37.15036097 31.87109375 36.328125 C29.36115301 35.03591735 26.85407041 33.73904286 24.35302734 32.4296875 C21.9274175 31.16258496 19.49225394 29.91578404 17.0546875 28.671875 C16.30669891 28.27409851 15.55871033 27.87632202 14.78805542 27.4664917 C10.86099391 25.38526391 10.86099391 25.38526391 6.57470703 25.57519531 C4.25201709 27.67677958 3.77538655 30.02768488 3 33 C1.68 32.34 0.36 31.68 -1 31 C-1 30.34 -1 29.68 -1 29 C-2.918125 29.0309375 -2.918125 29.0309375 -4.875 29.0625 C-8.75 29.125 -8.75 29.125 -11 28 C-11 29.65 -11 31.3 -11 33 C-12.98 32.505 -12.98 32.505 -15 32 C-14.938125 31.21625 -14.87625 30.4325 -14.8125 29.625 C-14.874375 28.75875 -14.93625 27.8925 -15 27 C-15.99 26.34 -16.98 25.68 -18 25 C-31.86 31.93 -45.72 38.86 -60 46 C-60 49.96 -60 53.92 -60 58 C-61.98 58.495 -61.98 58.495 -64 59 C-66.03308917 60.23278767 -67.95653522 61.57585871 -69.90234375 62.94140625 C-72.4277422 64.21586245 -74.20689018 64.07801018 -77 64 C-77.08040527 64.65371582 -77.16081055 65.30743164 -77.24365234 65.98095703 C-78.72552551 78.00294373 -80.20716749 90.01966043 -82 102 C-80.35 102.66 -78.7 103.32 -77 104 C-77.33 104.99 -77.66 105.98 -78 107 C-76.68 107 -75.36 107 -74 107 C-73.67 108.65 -73.34 110.3 -73 112 C-73.66 112 -74.32 112 -75 112 C-75 114.97 -75 117.94 -75 121 C-76.98 121.495 -76.98 121.495 -79 122 C-78.54625 122.391875 -78.0925 122.78375 -77.625 123.1875 C-76 125 -76 125 -75 127.625 C-74.67 128.40875 -74.34 129.1925 -74 130 C-73.01 130.33 -72.02 130.66 -71 131 C-71 131.33 -71 131.66 -71 132 C-73.3125 132.1875 -73.3125 132.1875 -76 132 C-76.495 131.484375 -76.99 130.96875 -77.5 130.4375 C-77.995 129.963125 -78.49 129.48875 -79 129 C-81.30745009 129.29329272 -81.30745009 129.29329272 -84 130 C-89.2601499 130.42420564 -92.96321432 130.30471476 -97.45703125 127.39453125 C-101.35981312 123.86720687 -102.78534316 119.52943002 -103.5 114.4375 C-102.78532988 109.5241429 -101.28712509 105.84270742 -97.3515625 102.671875 C-93.76369017 100.44708081 -91.13633504 99.82262714 -87 100 C-86.96261719 99.24460937 -86.92523438 98.48921875 -86.88671875 97.7109375 C-86.4164315 89.83593143 -85.55840089 82.0659815 -84.5 74.25 C-84.36940186 73.27337402 -84.23880371 72.29674805 -84.10424805 71.29052734 C-83.97703369 70.37480957 -83.84981934 69.4590918 -83.71875 68.515625 C-83.60466797 67.69352539 -83.49058594 66.87142578 -83.37304688 66.02441406 C-83 64 -83 64 -82 62 C-82.5775 61.773125 -83.155 61.54625 -83.75 61.3125 C-87.14222063 59.33370463 -89.25493471 56.49013058 -91 53 C-91.56350726 48.38108804 -91.4422879 44.90158688 -89.375 40.6875 C-86.15743681 37.04657323 -83.56029164 34.4086459 -78.6015625 33.6171875 C-72.85151677 33.35817643 -69.54209345 34.23338592 -65 38 C-64.01 38.66 -63.02 39.32 -62 40 C-61.50331818 39.74943848 -61.00663635 39.49887695 -60.49490356 39.24072266 C-55.3390154 36.64070644 -50.18035229 34.04626144 -45.02001953 31.45507812 C-43.09286456 30.48646254 -41.16642905 29.51641418 -39.24072266 28.54492188 C-36.47745291 27.15119859 -33.71166226 25.76259769 -30.9453125 24.375 C-29.6483696 23.71878662 -29.6483696 23.71878662 -28.32522583 23.04931641 C-27.52454681 22.64890137 -26.7238678 22.24848633 -25.89892578 21.8359375 C-25.1927713 21.48063965 -24.48661682 21.1253418 -23.75906372 20.75927734 C-22 20 -22 20 -20 20 C-20.04640625 19.41992188 -20.0928125 18.83984375 -20.140625 18.2421875 C-20.40259557 12.57239594 -19.84022146 9.46296007 -16 5 C-10.7845856 0.40546826 -6.93507204 -1.17973403 0 0 Z " fill="#E0B046" transform="translate(224,101)"/>
<path d="M0 0 C1.984375 1.33203125 1.984375 1.33203125 4 3 C4.25 5.6875 4.25 5.6875 4 8 C4.99 8.33 5.98 8.66 7 9 C7 7.35 7 5.7 7 4 C8.60517097 4.08733576 10.20921662 4.19552224 11.8125 4.3125 C13.15248047 4.39951172 13.15248047 4.39951172 14.51953125 4.48828125 C17.30604 5.06313581 18.24135754 5.8206856 20 8 C20.268125 7.236875 20.53625 6.47375 20.8125 5.6875 C21.94424112 3.12619116 22.91223401 1.80307062 25 0 C32.87074228 2.42744722 40.21826051 6.06373316 47.63305664 9.609375 C49.41984863 10.45335948 51.21528552 11.27927852 53.01879883 12.08691406 C68.10069455 18.8559647 68.10069455 18.8559647 70.38818359 24.30957031 C70.64708276 27.38473217 70.58386169 29.97693005 70 33 C68.53240234 33.97839844 68.53240234 33.97839844 67.03515625 34.9765625 C66.40448242 35.39768311 65.77380859 35.81880371 65.12402344 36.25268555 C63.74305322 37.17196948 62.3595558 38.08746762 60.97363281 38.99926758 C58.03629689 40.93737121 55.16476557 42.87168481 52.38671875 45.03515625 C48.04805012 48.39028757 45.49288796 49.34794917 39.9375 48.875 C38.28609259 48.61675522 36.63722917 48.33662656 35 48 C33.3863269 51.0959158 32.05395018 54.23727172 30.8125 57.5 C30.44769531 58.4384375 30.08289063 59.376875 29.70703125 60.34375 C28.97638576 63.08871647 29.02850903 64.3763556 30 67 C23.52472089 68.94258373 23.52472089 68.94258373 20.4296875 69.28125 C14.44205898 70.53606053 8.96268673 73.33471116 3.40625 75.84960938 C-2.95134618 78.58495635 -8.0868 79.60184398 -15 79 C-15 78.34 -15 77.68 -15 77 C-15.99 77.495 -15.99 77.495 -17 78 C-16.67 78.598125 -16.34 79.19625 -16 79.8125 C-15 82 -15 82 -15 85 C-15.99 84.67 -16.98 84.34 -18 84 C-18.309375 84.78375 -18.61875 85.5675 -18.9375 86.375 C-20 89 -20 89 -21 91 C-18.69 90.67 -16.38 90.34 -14 90 C-14.66 91.65 -15.32 93.3 -16 95 C-15.01 95.33 -14.02 95.66 -13 96 C-13 97.65 -13 99.3 -13 101 C-12.34 101 -11.68 101 -11 101 C-10.34 99.35 -9.68 97.7 -9 96 C-3.8776466 97.72119319 0.42459802 100.66089915 4.9375 103.5625 C5.77200684 104.09536621 6.60651367 104.62823242 7.46630859 105.17724609 C9.1643163 106.26216553 10.86126328 107.34874698 12.55712891 108.43701172 C14.80637867 109.87611795 17.06317922 111.30217151 19.32421875 112.72265625 C20.59124051 113.52328769 21.85817365 114.32405941 23.125 115.125 C24.24132812 115.82882813 25.35765625 116.53265625 26.5078125 117.2578125 C29 119 29 119 30 121 C29.19237817 125.92948849 27.57580071 129.85387983 23.48046875 132.83251953 C20.36964011 134.41392538 17.24082748 135.76884422 14 137.0625 C12.906875 137.53365234 11.81375 138.00480469 10.6875 138.49023438 C1.12844266 142.56103391 1.12844266 142.56103391 -2 143 C-2.8971875 142.071875 -2.8971875 142.071875 -3.8125 141.125 C-6.74317835 138.27805532 -8.99659969 138.22241113 -13 138 C-13.66 138.33 -14.32 138.66 -15 139 C-15 138.01 -15 137.02 -15 136 C-15.33 136.66 -15.66 137.32 -16 138 C-19.71599191 138.20086443 -20.77208445 138.1519437 -24 136 C-24.33 136.99 -24.66 137.98 -25 139 C-35.66666667 129 -46.33333333 119 -57 109 C-55.515 108.01 -55.515 108.01 -54 107 C-54.639375 106.4225 -55.27875 105.845 -55.9375 105.25 C-58.05761684 102.93714526 -58.29692428 101.91274226 -59 99 C-59.99 98.67 -60.98 98.34 -62 98 C-59.525 97.505 -59.525 97.505 -57 97 C-57.33 93.7 -57.66 90.4 -58 87 C-57.01 87.33 -56.02 87.66 -55 88 C-55.495 85.525 -55.495 85.525 -56 83 C-57.32 83 -58.64 83 -60 83 C-60 82.01 -60 81.02 -60 80 C-61.32 79.34 -62.64 78.68 -64 78 C-63.57202849 69.35202401 -62.66140045 60.82660321 -61.5 52.25 C-61.36940186 51.27337402 -61.23880371 50.29674805 -61.10424805 49.29052734 C-60.97703369 48.37480957 -60.84981934 47.4590918 -60.71875 46.515625 C-60.54762695 45.28247559 -60.54762695 45.28247559 -60.37304688 44.02441406 C-60 42 -60 42 -59 40 C-56.77403998 39.15307099 -54.51636413 38.53153701 -52.2265625 37.87890625 C-49.81998145 36.92894005 -48.76154616 35.845195 -47 34 C-45.515 33.505 -45.515 33.505 -44 33 C-43.34 33.33 -42.68 33.66 -42 34 C-42.165 33.505 -42.33 33.01 -42.5 32.5 C-43.2052265 28.97386748 -43.02923615 25.5960465 -43 22 C-28.78580588 14.42356634 -14.43053492 7.15505532 0 0 Z " fill="#DAAF49" transform="translate(206,125)"/>
<path d="M0 0 C4.47499272 2.3324665 8.2284001 5.15334327 10 10 C9.89867453 11.41855652 9.77255526 12.83550472 9.625 14.25 C9.75098114 16.72022249 9.75098114 16.72022249 11 19 C15.16007674 21.907958 19.68212107 23.77674474 24.32666016 25.78710938 C27.35983747 27.16325777 30.30551152 28.66871481 33.26171875 30.203125 C34.33413818 30.75766357 35.40655762 31.31220215 36.51147461 31.88354492 C38.65170246 32.99310745 40.78929563 34.10776848 42.92407227 35.2277832 C43.91334717 35.73140381 44.90262207 36.23502441 45.921875 36.75390625 C47.24590332 37.43948608 47.24590332 37.43948608 48.59667969 38.13891602 C51.28422457 39.10183463 52.39128044 39.07575696 55 38 C56.02019573 37.0206121 57.02149805 36.02104551 58 35 C63.58240452 33.13919849 69.05131969 33.06174652 74.375 35.625 C78.6481748 39.49120577 81.20485117 42.64621483 81.5 48.5 C81.27397305 52.98286783 80.01242101 55.59120781 77 59 C75.9275 59.598125 74.855 60.19625 73.75 60.8125 C72.8425 61.534375 71.935 62.25625 71 63 C70.48391276 70.42254885 71.567085 77.70423798 72.5 85.0625 C73.38710195 92.08339244 74.20806836 98.9170064 74 106 C74.86625 106.0825 75.7325 106.165 76.625 106.25 C81.46411116 107.32535804 84.60519362 109.41921944 87.875 113.125 C89.56358494 117.44027261 89.66646131 121.42997961 89 126 C87.02277707 129.88383075 84.91322591 132.99050561 81 135 C74.78489436 136.55982223 70.57156156 136.12007447 65 133 C62.47710854 130.99908609 61.24591523 128.95385735 60 126 C59.76953125 123.4921875 59.76953125 123.4921875 59.8125 120.875 C59.82216797 119.57175781 59.82216797 119.57175781 59.83203125 118.2421875 C60 116 60 116 61 114 C60.2575 113.7525 59.515 113.505 58.75 113.25 C55.71775441 111.87170655 54.23580255 110.44540904 52 108 C51.0925 107.0925 50.185 106.185 49.25 105.25 C48.13625 104.13625 48.13625 104.13625 47 103 C51.64761836 103.94735626 55.75679198 106.13371659 60.02734375 108.13671875 C63.59319423 109.17226797 64.71804955 108.49469143 68 107 C67.76827893 103.95849917 67.53473196 100.91715647 67.29882812 97.87597656 C67.10063783 95.30533186 66.9065833 92.73436474 66.71679688 90.16308594 C66.41868574 86.2313752 66.08673499 82.30357489 65.75 78.375 C65.70182129 77.70001465 65.65364258 77.0250293 65.60400391 76.32958984 C65.46120622 74.35082184 65.28577319 72.37449359 65.109375 70.3984375 C64.96967285 68.66086182 64.96967285 68.66086182 64.82714844 66.88818359 C64.26123069 63.79801002 64.26123069 63.79801002 61.49316406 62.16259766 C60.67041992 61.77894043 59.84767578 61.3952832 59 61 C58.67 60.67 58.34 60.34 58 60 C55.04182893 59.74994614 55.04182893 59.74994614 52 60 C51.01 60.99 51.01 60.99 50 62 C49.34 61.34 48.68 60.68 48 60 C48.49113281 59.63261719 48.98226562 59.26523438 49.48828125 58.88671875 C51.64766233 56.19167724 51.29719058 54.21290785 51.1875 50.8125 C51.16042969 49.72582031 51.13335937 48.63914063 51.10546875 47.51953125 C51.07066406 46.68808594 51.03585937 45.85664063 51 45 C50.18160645 44.75668945 49.36321289 44.51337891 48.52001953 44.26269531 C44.36241715 42.77128738 40.58606088 40.84305295 36.6796875 38.796875 C35.07718338 37.9732566 33.47430762 37.15036097 31.87109375 36.328125 C29.36115301 35.03591735 26.85407041 33.73904286 24.35302734 32.4296875 C21.9274175 31.16258496 19.49225394 29.91578404 17.0546875 28.671875 C16.30669891 28.27409851 15.55871033 27.87632202 14.78805542 27.4664917 C10.86099391 25.38526391 10.86099391 25.38526391 6.57470703 25.57519531 C4.25201709 27.67677958 3.77538655 30.02768488 3 33 C1.68 32.34 0.36 31.68 -1 31 C-1 30.34 -1 29.68 -1 29 C-2.918125 29.0309375 -2.918125 29.0309375 -4.875 29.0625 C-8.75 29.125 -8.75 29.125 -11 28 C-11 29.65 -11 31.3 -11 33 C-12.98 32.505 -12.98 32.505 -15 32 C-14.938125 31.21625 -14.87625 30.4325 -14.8125 29.625 C-14.874375 28.75875 -14.93625 27.8925 -15 27 C-15.99 26.34 -16.98 25.68 -18 25 C-31.86 31.93 -45.72 38.86 -60 46 C-60 49.96 -60 53.92 -60 58 C-61.98 58.495 -61.98 58.495 -64 59 C-66.03308917 60.23278767 -67.95653522 61.57585871 -69.90234375 62.94140625 C-72.4277422 64.21586245 -74.20689018 64.07801018 -77 64 C-77.08040527 64.65371582 -77.16081055 65.30743164 -77.24365234 65.98095703 C-78.72552551 78.00294373 -80.20716749 90.01966043 -82 102 C-80.35 102.66 -78.7 103.32 -77 104 C-77.33 104.99 -77.66 105.98 -78 107 C-76.68 107 -75.36 107 -74 107 C-73.67 108.65 -73.34 110.3 -73 112 C-73.66 112 -74.32 112 -75 112 C-75 114.97 -75 117.94 -75 121 C-76.98 121.495 -76.98 121.495 -79 122 C-78.54625 122.391875 -78.0925 122.78375 -77.625 123.1875 C-76 125 -76 125 -75 127.625 C-74.67 128.40875 -74.34 129.1925 -74 130 C-73.01 130.33 -72.02 130.66 -71 131 C-71 131.33 -71 131.66 -71 132 C-73.3125 132.1875 -73.3125 132.1875 -76 132 C-76.495 131.484375 -76.99 130.96875 -77.5 130.4375 C-77.995 129.963125 -78.49 129.48875 -79 129 C-81.30745009 129.29329272 -81.30745009 129.29329272 -84 130 C-89.2601499 130.42420564 -92.96321432 130.30471476 -97.45703125 127.39453125 C-101.35981312 123.86720687 -102.78534316 119.52943002 -103.5 114.4375 C-102.78532988 109.5241429 -101.28712509 105.84270742 -97.3515625 102.671875 C-93.76369017 100.44708081 -91.13633504 99.82262714 -87 100 C-86.96261719 99.24460937 -86.92523438 98.48921875 -86.88671875 97.7109375 C-86.4164315 89.83593143 -85.55840089 82.0659815 -84.5 74.25 C-84.36940186 73.27337402 -84.23880371 72.29674805 -84.10424805 71.29052734 C-83.97703369 70.37480957 -83.84981934 69.4590918 -83.71875 68.515625 C-83.60466797 67.69352539 -83.49058594 66.87142578 -83.37304688 66.02441406 C-83 64 -83 64 -82 62 C-82.5775 61.773125 -83.155 61.54625 -83.75 61.3125 C-87.14222063 59.33370463 -89.25493471 56.49013058 -91 53 C-91.56350726 48.38108804 -91.4422879 44.90158688 -89.375 40.6875 C-86.15743681 37.04657323 -83.56029164 34.4086459 -78.6015625 33.6171875 C-72.85151677 33.35817643 -69.54209345 34.23338592 -65 38 C-64.01 38.66 -63.02 39.32 -62 40 C-61.50331818 39.74943848 -61.00663635 39.49887695 -60.49490356 39.24072266 C-55.3390154 36.64070644 -50.18035229 34.04626144 -45.02001953 31.45507812 C-43.09286456 30.48646254 -41.16642905 29.51641418 -39.24072266 28.54492188 C-36.47745291 27.15119859 -33.71166226 25.76259769 -30.9453125 24.375 C-29.6483696 23.71878662 -29.6483696 23.71878662 -28.32522583 23.04931641 C-27.52454681 22.64890137 -26.7238678 22.24848633 -25.89892578 21.8359375 C-25.1927713 21.48063965 -24.48661682 21.1253418 -23.75906372 20.75927734 C-22 20 -22 20 -20 20 C-20.04640625 19.41992188 -20.0928125 18.83984375 -20.140625 18.2421875 C-20.40259557 12.57239594 -19.84022146 9.46296007 -16 5 C-10.7845856 0.40546826 -6.93507204 -1.17973403 0 0 Z " fill="#E4B144" transform="translate(224,101)"/>
<path d="M0 0 C1.6045556 0.14148989 3.20863767 0.28835686 4.8125 0.4375 C6.15248047 0.55931641 6.15248047 0.55931641 7.51953125 0.68359375 C10 1 10 1 13 2 C13 2.33 13 2.66 13 3 C11.35 3 9.7 3 8 3 C8 3.66 8 4.32 8 5 C8.66 5 9.32 5 10 5 C10 6.32 10 7.64 10 9 C10.99 8.67 11.98 8.34 13 8 C13.44050146 13.39614283 13.45532954 17.86921449 10.38671875 22.48828125 C7.17026664 25.99466707 3.44669442 27.75617135 -1.2734375 28.2265625 C-6.69646395 27.98595041 -9.84571896 26.10837276 -13.78515625 22.47265625 C-15 21 -15 21 -15 19 C-21.80237374 21.57689923 -28.37648178 24.52118582 -34.90844727 27.71313477 C-37.80111914 29.10033247 -39.74815412 30 -43 30 C-42.95359375 30.65226562 -42.9071875 31.30453125 -42.859375 31.9765625 C-42.61569393 37.87712549 -42.86578085 41.41883824 -47 46 C-50.83833721 49.38676812 -54.63654253 49.51271703 -59.56640625 49.3515625 C-64.30696074 48.66673119 -66.95563656 45.98791136 -70.3125 42.8125 C-72.62968069 38.95053219 -73.22269208 35.48565466 -73 31 C-71.6875 27.8125 -71.6875 27.8125 -70 25 C-69.30028027 23.01132287 -68.62335603 21.01391949 -68 19 C-68.66 18.67 -69.32 18.34 -70 18 C-67 18 -67 18 -65 19 C-65 19.66 -65 20.32 -65 21 C-63.35 21 -61.7 21 -60 21 C-59.67 20.01 -59.34 19.02 -59 18 C-58.67 18.99 -58.34 19.98 -58 21 C-57.67 20.67 -57.34 20.34 -57 20 C-52.50397765 20.33932244 -49.26168953 20.73831047 -46 24 C-46 24.66 -46 25.32 -46 26 C-45.30438965 25.66677734 -44.6087793 25.33355469 -43.89208984 24.99023438 C-40.72528833 23.48148003 -37.55037059 21.99062956 -34.375 20.5 C-33.28058594 19.97535156 -32.18617188 19.45070313 -31.05859375 18.91015625 C-29.99511719 18.41386719 -28.93164062 17.91757812 -27.8359375 17.40625 C-26.86188965 16.94541016 -25.8878418 16.48457031 -24.88427734 16.00976562 C-21.74645621 14.91123606 -19.29994906 14.81167606 -16 15 C-15.67 12.36 -15.34 9.72 -15 7 C-13.87851563 6.70996094 -13.87851563 6.70996094 -12.734375 6.4140625 C-11.74953125 6.15367187 -10.7646875 5.89328125 -9.75 5.625 C-8.28820312 5.24214844 -8.28820312 5.24214844 -6.796875 4.8515625 C-4.34162697 4.10401491 -2.24382595 3.22876183 0 2 C0 1.34 0 0.68 0 0 Z " fill="#E3B143" transform="translate(250,242)"/>
<path d="M0 0 C1.134375 0.020625 2.26875 0.04125 3.4375 0.0625 C9.61828318 13.99067075 15.74105237 27.92831083 21.4375 42.0625 C20.64988281 42.82949219 19.86226562 43.59648437 19.05078125 44.38671875 C16.65802176 46.83670417 15.06145384 49.07100608 13.4375 52.0625 C8.25250047 51.49322581 3.69643375 50.25841422 -1.17578125 48.375 C-1.87140671 48.11243408 -2.56703217 47.84986816 -3.28373718 47.5793457 C-5.48343164 46.74708486 -7.67915178 45.9048489 -9.875 45.0625 C-11.36759811 44.49676109 -12.86043469 43.93165091 -14.35351562 43.3671875 C-25.11637301 39.2855635 -25.11637301 39.2855635 -27.5625 38.0625 C-23.90136836 28.25343034 -16.95450169 19.60990255 -11.1875 10.9375 C-10.55618164 9.98810547 -9.92486328 9.03871094 -9.27441406 8.06054688 C-8.68112305 7.17173828 -8.08783203 6.28292969 -7.4765625 5.3671875 C-6.9398291 4.56265137 -6.4030957 3.75811523 -5.85009766 2.92919922 C-3.8765277 0.06800926 -3.8765277 0.06800926 0 0 Z " fill="#0D141F" transform="translate(218.5625,130.9375)"/>
<path d="M0 0 C7.87074228 2.42744722 15.21826051 6.06373316 22.63305664 9.609375 C24.41984863 10.45335948 26.21528552 11.27927852 28.01879883 12.08691406 C43.10069455 18.8559647 43.10069455 18.8559647 45.38818359 24.30957031 C45.64708276 27.38473217 45.58386169 29.97693005 45 33 C43.53240234 33.97839844 43.53240234 33.97839844 42.03515625 34.9765625 C41.40416016 35.39768311 40.77316406 35.81880371 40.12304688 36.25268555 C38.74453623 37.17076711 37.36431139 38.08627978 35.98242188 38.99926758 C33.02311802 40.9583072 30.10105196 42.92532189 27.24609375 45.03515625 C26.50488281 45.58042969 25.76367188 46.12570313 25 46.6875 C24.38125 47.16574219 23.7625 47.64398438 23.125 48.13671875 C19.4504774 49.62949356 17.72363457 49.41255268 14 48 C11.55412963 44.42920673 10.07477492 40.51560361 8.5 36.5 C7.80161011 34.80677612 7.80161011 34.80677612 7.08911133 33.0793457 C6.15084099 30.79906839 5.22339967 28.51430357 4.30712891 26.22509766 C3.14466525 23.35693462 1.92835539 20.52535757 0.66796875 17.69921875 C0.00768128 16.19537011 -0.65248513 14.6914683 -1.3125 13.1875 C-1.62058594 12.50816406 -1.92867187 11.82882813 -2.24609375 11.12890625 C-4.17551526 6.57697006 -4.17551526 6.57697006 -3.29296875 3.67578125 C-2 2 -2 2 0 0 Z " fill="#0C141E" transform="translate(231,125)"/>
<path d="M0 0 C1.25013723 0.9166479 2.48251471 1.85764699 3.70410156 2.81201172 C5.77167576 4.29808067 7.25232565 4.71318574 9.70410156 5.24951172 C10.89798559 32.20715912 10.89798559 32.20715912 10.70410156 44.24951172 C7.49606412 45.28901194 6.12674511 45.44513311 3.01611328 44.00537109 C2.06494629 43.374375 1.1137793 42.74337891 0.13378906 42.09326172 C-0.92839844 41.39974609 -1.99058594 40.70623047 -3.08496094 39.99169922 C-4.19723709 39.24474544 -5.30921524 38.4973477 -6.42089844 37.74951172 C-8.5901378 36.32238056 -10.75940841 34.89529687 -12.92871094 33.46826172 C-14.51474121 32.41251953 -14.51474121 32.41251953 -16.1328125 31.33544922 C-20.09881752 28.72001646 -24.11603651 26.19114741 -28.14697266 23.67724609 C-30.29589844 22.24951172 -30.29589844 22.24951172 -32.29589844 20.24951172 C-32.27246094 18.08544922 -32.27246094 18.08544922 -31.92089844 15.62451172 C-31.81003906 14.80724609 -31.69917969 13.98998047 -31.58496094 13.14794922 C-31.48957031 12.52146484 -31.39417969 11.89498047 -31.29589844 11.24951172 C-27.24741746 9.4839115 -23.19083076 7.73899431 -19.12548828 6.01269531 C-17.74384692 5.42260242 -16.36457554 4.82692798 -14.98779297 4.22558594 C-13.00792893 3.36198266 -11.0204003 2.51883209 -9.03027344 1.67919922 C-7.23928223 0.90938721 -7.23928223 0.90938721 -5.41210938 0.12402344 C-2.29589844 -0.75048828 -2.29589844 -0.75048828 0 0 Z " fill="#0B131F" transform="translate(234.2958984375,196.75048828125)"/>
<path d="M0 0 C3.28343256 1.23616209 6.19753726 2.61575377 9.15234375 4.50390625 C9.92271973 4.9932666 10.6930957 5.48262695 11.48681641 5.98681641 C12.29554199 6.50679199 13.10426758 7.02676758 13.9375 7.5625 C14.77200684 8.09536621 15.60651367 8.62823242 16.46630859 9.17724609 C18.1643163 10.26216553 19.86126328 11.34874698 21.55712891 12.43701172 C23.80637867 13.87611795 26.06317922 15.30217151 28.32421875 16.72265625 C29.59124051 17.52328769 30.85817365 18.32405941 32.125 19.125 C33.24132812 19.82882813 34.35765625 20.53265625 35.5078125 21.2578125 C38 23 38 23 39 25 C38.19237817 29.92948849 36.57580071 33.85387983 32.48046875 36.83251953 C29.36964011 38.41392538 26.24082748 39.76884422 23 41.0625 C21.3603125 41.76922852 21.3603125 41.76922852 19.6875 42.49023438 C10.1458611 46.55361614 10.1458611 46.55361614 7 47 C5.62298702 45.71182656 4.29355827 44.37195574 3 43 C1.35237209 42.28757842 -0.31326271 41.61411687 -2 41 C-2.40784642 27.26917062 -1.16812227 13.67106926 0 0 Z " fill="#0C131E" transform="translate(197,221)"/>
<path d="M0 0 C3.45701701 1.55857951 3.45701701 1.55857951 4.875 2.9765625 C5.24957599 5.55350835 5.56744578 8.11544103 5.84765625 10.703125 C5.93502548 11.48416595 6.02239471 12.26520691 6.1124115 13.06991577 C6.29688957 14.72915386 6.47916085 16.38863853 6.65942383 18.04833984 C6.93413963 20.57070846 7.217499 23.09199452 7.50195312 25.61328125 C7.68021223 27.2265046 7.85796239 28.83978429 8.03515625 30.453125 C8.11951431 31.201315 8.20387238 31.949505 8.29078674 32.72036743 C9.61153257 45.0417327 9.61153257 45.0417327 7.25 48.0390625 C3.82566985 49.39077177 2.26560871 48.33600467 -1.125 46.9765625 C-4.33999961 45.27735819 -7.40609574 43.34605874 -10.49047852 41.4230957 C-13.25505556 39.70390961 -15.92288316 38.070597 -18.87890625 36.6953125 C-21.1340632 35.63026521 -22.57691452 34.93844441 -24.125 32.9765625 C-24.53692708 29.84328735 -24.44578171 27.05478974 -24.11328125 23.9140625 C-24.12732842 20.3929056 -25.28238188 18.90103952 -27.125 15.9765625 C-25.40880518 10.82797804 -20.46650529 8.59185505 -16.125 5.6015625 C-15.20332031 4.92222656 -14.28164063 4.24289063 -13.33203125 3.54296875 C-5.54712149 -1.80435291 -5.54712149 -1.80435291 0 0 Z " fill="#0C131E" transform="translate(284.125,162.0234375)"/>
<path d="M0 0 C2.53955078 1.27514648 2.53955078 1.27514648 5.1953125 2.87109375 C6.63970703 3.73250977 6.63970703 3.73250977 8.11328125 4.61132812 C9.10714844 5.21396484 10.10101563 5.81660156 11.125 6.4375 C12.12660156 7.03626953 13.12820313 7.63503906 14.16015625 8.25195312 C17.81743337 10.44386485 21.45189704 12.63459802 25 15 C25.37655833 19.89525823 25.30099979 24.24548375 24 29 C20.44235739 32.74151912 16.31406392 34.73547041 11.6875 36.9375 C10.53314453 37.55044922 9.37878906 38.16339844 8.18945312 38.79492188 C-0.18135363 43.10421125 -0.18135363 43.10421125 -3.19213867 42.72094727 C-3.78873291 42.48303467 -4.38532715 42.24512207 -5 42 C-6.36125 41.4740625 -6.36125 41.4740625 -7.75 40.9375 C-8.4925 40.628125 -9.235 40.31875 -10 40 C-10.79541627 27.31595119 -11.12807946 14.70832863 -11 2 C-6.77677427 -0.45536379 -4.69846733 -1.38079375 0 0 Z " fill="#0C141E" transform="translate(260,200)"/>
<path d="M0 0 C1.66663696 -0.00676758 1.66663696 -0.00676758 3.36694336 -0.01367188 C4.41503174 -0.01173828 5.46312012 -0.00980469 6.54296875 -0.0078125 C7.48551514 -0.00668457 8.42806152 -0.00555664 9.39916992 -0.00439453 C11.8125 0.125 11.8125 0.125 14.8125 1.125 C14.31607927 15.19428998 13.37554257 29.13349269 11.8125 43.125 C6.55639527 41.65012316 3.64995137 38.26542543 0 34.4375 C-1.25332234 33.15180462 -2.50851245 31.86792717 -3.765625 30.5859375 C-4.36181641 29.97717773 -4.95800781 29.36841797 -5.57226562 28.74121094 C-7.39180305 26.92057343 -9.28111637 25.22006442 -11.25 23.5625 C-15.01219137 20.32833549 -18.65720035 16.98296016 -22.25 13.5625 C-22.84756104 13.01972412 -23.44512207 12.47694824 -24.06079102 11.91772461 C-25.65041565 10.37854201 -27.00865516 8.99869474 -28.1875 7.125 C-28.05859375 3.72265625 -28.05859375 3.72265625 -27.1875 1.125 C-18.12007724 0.21663564 -9.10687655 0.01565764 0 0 Z " fill="#0D141E" transform="translate(177.1875,218.875)"/>
<path d="M0 0 C11 5.5 11 5.5 22 11 C20.39269857 15.66027623 17.90427369 19.49334117 15.1875 23.5625 C14.76146484 24.22185547 14.33542969 24.88121094 13.89648438 25.56054688 C9.24843347 32.55723469 3.01430624 36.45689801 -4 40.875 C-5.19109375 41.66003906 -5.19109375 41.66003906 -6.40625 42.4609375 C-12.30118191 46.15509483 -12.30118191 46.15509483 -16.0625 45.3203125 C-16.701875 44.88460937 -17.34125 44.44890625 -18 44 C-17.57202849 35.35202401 -16.66140045 26.82660321 -15.5 18.25 C-15.36940186 17.27337402 -15.23880371 16.29674805 -15.10424805 15.29052734 C-14.97703369 14.37480957 -14.84981934 13.4590918 -14.71875 12.515625 C-14.60466797 11.69352539 -14.49058594 10.87142578 -14.37304688 10.02441406 C-14 8 -14 8 -13 6 C-10.80770249 5.15065147 -8.58204965 4.53199783 -6.32421875 3.87890625 C-3.82044096 2.93209952 -2.05943845 1.6918499 0 0 Z " fill="#0D141E" transform="translate(160,159)"/>
<path d="M0 0 C14.76466233 5.07943582 29.40074983 10.46385244 44 16 C44 16.99 44 17.98 44 19 C39.90285081 20.75340363 35.79547905 22.47938923 31.67700195 24.18188477 C30.28041141 24.7635153 28.88676085 25.35226219 27.49633789 25.94848633 C13.26389876 32.04080778 13.26389876 32.04080778 5 30 C5 29.34 5 28.68 5 28 C4.29488281 27.74476563 3.58976563 27.48953125 2.86328125 27.2265625 C-0.2696348 25.88449478 -2.95714425 24.23270133 -5.8125 22.375 C-6.78832031 21.74335938 -7.76414063 21.11171875 -8.76953125 20.4609375 C-9.50558594 19.97882813 -10.24164063 19.49671875 -11 19 C-9.41467191 14.44435939 -7.00996919 10.68524231 -4.375 6.6875 C-3.95476562 6.04232422 -3.53453125 5.39714844 -3.1015625 4.73242188 C-2.07161759 3.15239276 -1.03634372 1.57583953 0 0 Z " fill="#0D141E" transform="translate(187,173)"/>
<path d="M0 0 C1.32 0.99 2.64 1.98 4 3 C2.48785179 7.3331989 0.20088213 10.92819953 -2.375 14.6875 C-3.26584385 16.00506039 -4.156458 17.3227761 -5.046875 18.640625 C-5.7574707 19.68766602 -5.7574707 19.68766602 -6.48242188 20.75585938 C-9.21845403 24.80180654 -11.9190974 28.87137 -14.625 32.9375 C-15.65870989 34.48837742 -16.69255161 36.03916699 -17.7265625 37.58984375 C-18.38519287 38.57778931 -18.38519287 38.57778931 -19.05712891 39.58569336 C-19.36827637 40.05241455 -19.67942383 40.51913574 -20 41 C-23.57364359 40.42590968 -26.28384304 39.50054964 -29.42578125 37.71484375 C-30.22177734 37.26689453 -31.01777344 36.81894531 -31.83789062 36.35742188 C-33.06282227 35.65456055 -33.06282227 35.65456055 -34.3125 34.9375 C-35.14845703 34.46505859 -35.98441406 33.99261719 -36.84570312 33.50585938 C-38.90069265 32.34332244 -40.95187737 31.17457909 -43 30 C-43 27.36 -43 24.72 -43 22 C-28.78580588 14.42356634 -14.43053492 7.15505532 0 0 Z " fill="#0F151E" transform="translate(206,125)"/>
<path d="M0 0 C2.859375 1.453125 2.859375 1.453125 5.75 3.25 C6.71421875 3.83265625 7.6784375 4.4153125 8.671875 5.015625 C11 7 11 7 11.890625 9.421875 C12 12 12 12 11 17 C-6.325 17.495 -6.325 17.495 -24 18 C-24.33 16.02 -24.66 14.04 -25 12 C-22.60512849 10.39438174 -20.20914587 8.79046593 -17.8125 7.1875 C-17.13896484 6.73568359 -16.46542969 6.28386719 -15.77148438 5.81835938 C-14.45129253 4.93608483 -13.12729553 4.05947408 -11.79931641 3.18896484 C-10.28918338 2.19108861 -8.80350485 1.15633991 -7.32421875 0.11328125 C-4.32071304 -1.32537275 -3.12096192 -1.09137932 0 0 Z " fill="#0F151D" transform="translate(175,197)"/>
<path d="M0 0 C2.1640625 0.0234375 2.1640625 0.0234375 4.625 0.375 C5.85089844 0.54128906 5.85089844 0.54128906 7.1015625 0.7109375 C7.72804687 0.80632812 8.35453125 0.90171875 9 1 C9 1.33 9 1.66 9 2 C7.35 2 5.7 2 4 2 C3.91435791 2.68513672 3.82871582 3.37027344 3.74047852 4.07617188 C1.75390625 19.96875 1.75390625 19.96875 1.36010742 23.09887695 C1.13735146 24.89345938 0.92022292 26.68876241 0.7121582 28.48510742 C0.09804785 33.74473282 -1.09190547 36.6378582 -4 41 C-6.27734375 41.4765625 -6.27734375 41.4765625 -8.9375 41.625 C-11.93032789 41.81012337 -14.13138156 42.04379385 -17 43 C-18.21869929 45.50447516 -18.21869929 45.50447516 -19 48 C-19.66 48 -20.32 48 -21 48 C-19.87887704 43.09508703 -17.19449547 41.44915093 -13.16796875 38.91796875 C-10.63672089 37.84617912 -8.72204545 37.83373195 -6 38 C-5.96261719 37.24460938 -5.92523438 36.48921875 -5.88671875 35.7109375 C-5.41693877 27.84442569 -4.5847567 20.06246149 -3.5625 12.25 C-3.44028076 11.27337402 -3.31806152 10.29674805 -3.19213867 9.29052734 C-3.06814697 8.37480957 -2.94415527 7.4590918 -2.81640625 6.515625 C-2.70756104 5.69352539 -2.59871582 4.87142578 -2.48657227 4.02441406 C-2 2 -2 2 0 0 Z " fill="#D5AB48" transform="translate(143,163)"/>
<path d="M0 0 C5.45426247 1.9574742 10.59721222 4.16951939 15.75 6.8125 C17.14060424 7.51696806 18.53122947 8.22139469 19.921875 8.92578125 C20.60443359 9.27334473 21.28699219 9.6209082 21.99023438 9.97900391 C24.98609026 11.5009511 27.99305174 13.00008861 31 14.5 C32.66666667 15.33333333 34.33333333 16.16666667 36 17 C35.505 18.485 35.505 18.485 35 20 C36.65 20.33 38.3 20.66 40 21 C40.96070434 23.88211302 41.10581883 25.69850044 41.0625 28.6875 C41.05347656 29.49574219 41.04445313 30.30398437 41.03515625 31.13671875 C41.02355469 31.75160156 41.01195312 32.36648437 41 33 C40.67 33 40.34 33 40 33 C40 30.36 40 27.72 40 25 C39.18450684 24.75523926 38.36901367 24.51047852 37.52880859 24.25830078 C33.34699431 22.76715156 29.49414608 20.8717136 25.5390625 18.8671875 C24.74849457 18.47048859 23.95792664 18.07378967 23.1434021 17.66506958 C20.63535401 16.40547789 18.13015594 15.14033237 15.625 13.875 C13.91815433 13.01655799 12.21112497 12.15848113 10.50390625 11.30078125 C6.33379921 9.20474165 2.16623797 7.10371882 -2 5 C-1.01 4.67 -0.02 4.34 1 4 C0.67 2.68 0.34 1.36 0 0 Z " fill="#D6AD4B" transform="translate(235,121)"/>
<path d="M0 0 C0.495 1.98 0.495 1.98 1 4 C0.34 4 -0.32 4 -1 4 C-1 4.66 -1 5.32 -1 6 C0.98 5.67 2.96 5.34 5 5 C5.495 6.485 5.495 6.485 6 8 C5.01 8 4.02 8 3 8 C1.1246312 8.69333538 1.1246312 8.69333538 -0.8515625 9.6875 C-1.61299561 10.05302979 -2.37442871 10.41855957 -3.15893555 10.79516602 C-3.97273682 11.19276123 -4.78653809 11.59035645 -5.625 12 C-7.33188956 12.8219089 -9.03892412 13.64351673 -10.74609375 14.46484375 C-11.61476074 14.88491699 -12.48342773 15.30499023 -13.37841797 15.73779297 C-17.46846692 17.70701937 -21.57770895 19.63490668 -25.6875 21.5625 C-27.10811999 22.23036862 -28.52869755 22.89832752 -29.94921875 23.56640625 C-30.95597656 24.03949219 -31.96273437 24.51257813 -33 25 C-33 24.01 -33 23.02 -33 22 C-35.97065509 22.34227572 -35.97065509 22.34227572 -39 23 C-39.33 23.66 -39.66 24.32 -40 25 C-40.66 24.34 -41.32 23.68 -42 23 C-36.34280556 20.14611007 -30.68252326 17.29841902 -25.02001953 14.45507812 C-23.09286456 13.48646254 -21.16642905 12.51641418 -19.24072266 11.54492188 C-16.47745291 10.15119859 -13.71166226 8.76259769 -10.9453125 7.375 C-10.0806839 6.93752441 -9.2160553 6.50004883 -8.32522583 6.04931641 C-7.52454681 5.64890137 -6.7238678 5.24848633 -5.89892578 4.8359375 C-4.83969406 4.30299072 -4.83969406 4.30299072 -3.75906372 3.75927734 C-2 3 -2 3 0 3 C0 2.01 0 1.02 0 0 Z " fill="#D9AD49" transform="translate(204,118)"/>
<path d="M0 0 C0.33 0.66 0.66 1.32 1 2 C4.02934491 2.65772428 4.02934491 2.65772428 7 3 C7.33 2.34 7.66 1.68 8 1 C8.495 3.97 8.495 3.97 9 7 C8.34 6.67 7.68 6.34 7 6 C7 5.34 7 4.68 7 4 C0.19762626 6.57689923 -6.37648178 9.52118582 -12.90844727 12.71313477 C-15.80111914 14.10033247 -17.74815412 15 -21 15 C-20.95359375 15.65226562 -20.9071875 16.30453125 -20.859375 16.9765625 C-20.60733435 23.07954686 -21.03942021 26.2968115 -25 31 C-25.93065133 28.39417629 -26.14917407 27.35801776 -25.0625 24.75 C-24.711875 24.1725 -24.36125 23.595 -24 23 C-23.67 23 -23.34 23 -23 23 C-22.67 21.02 -22.34 19.04 -22 17 C-22.66 17 -23.32 17 -24 17 C-24 18.65 -24 20.3 -24 22 C-24.66 22 -25.32 22 -26 22 C-26.1255814 16.4744186 -26.1255814 16.4744186 -25.4375 13.875 C-24.90999006 11.6142431 -25.29772772 10.18484708 -26 8 C-25.01 8.495 -25.01 8.495 -24 9 C-24 9.66 -24 10.32 -24 11 C-16.08 7.37 -8.16 3.74 0 0 Z " fill="#DFB34D" transform="translate(228,257)"/>
<path d="M0 0 C0.33 0 0.66 0 1 0 C2.19388403 26.9576474 2.19388403 26.9576474 2 39 C-0.10546875 39.74609375 -0.10546875 39.74609375 -3 40 C-6.11328125 38.34765625 -6.11328125 38.34765625 -9.3125 36.0625 C-10.38113281 35.31097656 -11.44976562 34.55945313 -12.55078125 33.78515625 C-13.35902344 33.19605469 -14.16726562 32.60695312 -15 32 C-12.56612247 30.78306124 -10.58161154 30.68040104 -7.875 30.4375 C-6.96492187 30.35371094 -6.05484375 30.26992187 -5.1171875 30.18359375 C-4.41851562 30.12300781 -3.71984375 30.06242187 -3 30 C-0.92273428 22.66847392 -1.05648401 16.53537771 -2 9 C-1.34 9 -0.68 9 0 9 C0 6.03 0 3.06 0 0 Z M-6 31 C-6.99 31.99 -7.98 32.98 -9 34 C-6.03 34.495 -6.03 34.495 -3 35 C-3 34.34 -3 33.68 -3 33 C-3.66 33 -4.32 33 -5 33 C-5.33 32.34 -5.66 31.68 -6 31 Z " fill="#191A1A" transform="translate(243,202)"/>
<path d="M0 0 C4.02370903 4.02370903 3.12786515 11.60373542 3.13671875 17.06640625 C3.13285156 17.86949219 3.12898438 18.67257813 3.125 19.5 C3.12886719 20.30308594 3.13273437 21.10617188 3.13671875 21.93359375 C3.12843919 27.04208356 2.7306148 31.9436817 2 37 C1.67 37 1.34 37 1 37 C1 34.36 1 31.72 1 29 C0.34 29 -0.32 29 -1 29 C-1 30.98 -1 32.96 -1 35 C-1.33 35 -1.66 35 -2 35 C-2.23209701 23.13726393 -1.81242503 11.73221561 0 0 Z " fill="#D6AC45" transform="translate(77,172)"/>
<path d="M0 0 C0.66 0.33 1.32 0.66 2 1 C2.66 1 3.32 1 4 1 C4.33 0.67 4.66 0.34 5 0 C7.9375 -0.25 7.9375 -0.25 11 0 C11.66 0.99 12.32 1.98 13 3 C12.26934326 2.77836182 11.53868652 2.55672363 10.78588867 2.32836914 C7.25576557 1.91227804 6.26376313 2.68487992 3.42578125 4.74609375 C2.59369141 5.33583984 1.76160156 5.92558594 0.90429688 6.53320312 C-0.37864258 7.47583008 -0.37864258 7.47583008 -1.6875 8.4375 C-3.39703477 9.66912766 -5.10914781 10.8971871 -6.82421875 12.12109375 C-7.57791748 12.6720874 -8.33161621 13.22308105 -9.1081543 13.79077148 C-11 15 -11 15 -13 15 C-13 12 -13 12 -11 10 C-11.66 9.67 -12.32 9.34 -13 9 C-8.71 6.03 -4.42 3.06 0 0 Z " fill="#D4AD4B" transform="translate(271,160)"/>
<path d="M0 0 C1.65 0.33 3.3 0.66 5 1 C5.40379866 13.74209104 4.17467711 26.32535895 3 39 C2.67 39 2.34 39 2 39 C1.49511485 34.93809157 0.9969481 30.87538649 0.5 26.8125 C0.35691406 25.66201172 0.21382813 24.51152344 0.06640625 23.32617188 C-0.13662109 21.65844727 -0.13662109 21.65844727 -0.34375 19.95703125 C-0.46943359 18.93585205 -0.59511719 17.91467285 -0.72460938 16.86254883 C-0.97897068 14.21858939 -1.05115721 11.6537801 -1 9 C0.32 9.33 1.64 9.66 3 10 C3 7.36 3 4.72 3 2 C2.01 2 1.02 2 0 2 C0 1.34 0 0.68 0 0 Z " fill="#CFA64C" transform="translate(290,162)"/>
<path d="M0 0 C0.66 0 1.32 0 2 0 C2.89632321 7.37373863 3.15313873 14.63856376 3.125 22.0625 C3.12886719 23.08666016 3.13273437 24.11082031 3.13671875 25.16601562 C3.12901662 31.19292942 2.78356419 37.02376836 2 43 C0.515 43.495 0.515 43.495 -1 44 C-0.9285376 43.25081299 -0.8570752 42.50162598 -0.78344727 41.72973633 C0.00286943 32.69979902 0.11862266 23.7401909 0.0625 14.6875 C0.05746757 13.2532568 0.05290779 11.81901185 0.04882812 10.38476562 C0.03797759 6.92314002 0.0208124 3.46158178 0 0 Z " fill="#D7AF52" transform="translate(338,177)"/>
<path d="M0 0 C0.66 0.33 1.32 0.66 2 1 C2.48211921 7.38807947 2.48211921 7.38807947 0.375 10.0625 C-2 11 -2 11 -5.125 10.4375 C-8.18292071 8.90853965 -8.94247607 8.17257179 -10 5 C-6.55930376 2.70620251 -5.27709699 2 -1 2 C-0.67 1.34 -0.34 0.68 0 0 Z " fill="#18191D" transform="translate(291,200)"/>
<path d="M0 0 C3.96 1.98 7.92 3.96 12 6 C11.67 7.32 11.34 8.64 11 10 C11.66 10.33 12.32 10.66 13 11 C12.67 11.66 12.34 12.32 12 13 C6.39 10.03 0.78 7.06 -5 4 C-4.01 3.67 -3.02 3.34 -2 3 C-1.34 3.33 -0.68 3.66 0 4 C0 2.68 0 1.36 0 0 Z " fill="#DAB14B" transform="translate(164,155)"/>
<path d="M0 0 C-0.495 0.45375 -0.99 0.9075 -1.5 1.375 C-3.22609337 2.87635519 -3.22609337 2.87635519 -3 5 C-3.99 5 -4.98 5 -6 5 C-6 4.34 -6 3.68 -6 3 C-10.41522109 4.26974972 -10.41522109 4.26974972 -14 7 C-16.30911405 7.8473813 -18.64474673 8.52421344 -21.00390625 9.21875 C-23.18727401 9.81628991 -23.18727401 9.81628991 -24 12 C-25.70776423 12.75535726 -27.41879163 13.50508597 -29.15234375 14.19921875 C-31.2215932 15.04223346 -31.2215932 15.04223346 -33.8125 16.75 C-34.534375 17.1625 -35.25625 17.575 -36 18 C-36.66 17.67 -37.32 17.34 -38 17 C-7.26829268 -3.63414634 -7.26829268 -3.63414634 0 0 Z " fill="#D2AD53" transform="translate(175,63)"/>
<path d="M0 0 C8.25 0 16.5 0 25 0 C25 0.66 25 1.32 25 2 C28.465 1.505 28.465 1.505 32 1 C31.34 2.65 30.68 4.3 30 6 C24.06 5.67 18.12 5.34 12 5 C15 3 15 3 22 2 C14.74 1.67 7.48 1.34 0 1 C0 0.67 0 0.34 0 0 Z " fill="#CEA850" transform="translate(160,214)"/>
<path d="M0 0 C0 0.33 0 0.66 0 1 C-1.82337891 1.09087891 -1.82337891 1.09087891 -3.68359375 1.18359375 C-5.26824228 1.26798332 -6.85287702 1.3526321 -8.4375 1.4375 C-9.23994141 1.47681641 -10.04238281 1.51613281 -10.86914062 1.55664062 C-14.75239561 1.4054296 -14.75239561 1.4054296 -18 3 C-17.34 3.66 -16.68 4.32 -16 5 C-18.97 5 -21.94 5 -25 5 C-24.34 4.67 -23.68 4.34 -23 4 C-23 3.34 -23 2.68 -23 2 C-24.03125 2.33 -25.0625 2.66 -26.125 3 C-29.48426709 3.9715192 -32.49106202 4.17116771 -36 4 C-36.33 3.34 -36.66 2.68 -37 2 C-24.6386543 -0.15649645 -12.51962211 -0.22304384 0 0 Z " fill="#DCB450" transform="translate(226,56)"/>
<path d="M0 0 C6.68412752 3.63566563 13.35556707 7.29224236 20 11 C19.01 11.33 18.02 11.66 17 12 C14.3125 10.5625 14.3125 10.5625 12 9 C11.67 9.33 11.34 9.66 11 10 C12.98 11.32 14.96 12.64 17 14 C16.01 14.495 16.01 14.495 15 15 C12.6171875 13.9609375 12.6171875 13.9609375 9.875 12.375 C8.96492188 11.86710938 8.05484375 11.35921875 7.1171875 10.8359375 C5 9 5 9 4.6953125 6.2890625 C4.79585938 5.53367188 4.89640625 4.77828125 5 4 C4.360625 3.896875 3.72125 3.79375 3.0625 3.6875 C2.381875 3.460625 1.70125 3.23375 1 3 C0.67 2.01 0.34 1.02 0 0 Z " fill="#D3AD4F" transform="translate(262,196)"/>
<path d="M0 0 C0 0.99 0 1.98 0 3 C-0.886875 3.433125 -1.77375 3.86625 -2.6875 4.3125 C-5.94916114 5.88533127 -5.94916114 5.88533127 -8.5625 7.75 C-11.52823015 9.27088726 -12.88084871 8.98030469 -16 8 C-16 10.64 -16 13.28 -16 16 C-15.01 16 -14.02 16 -13 16 C-13 16.99 -13 17.98 -13 19 C-16.74438202 17.5505618 -16.74438202 17.5505618 -17.8125 15.25 C-18.0786633 12.05604034 -18.04130035 10.08504657 -17 7 C-14.34467554 5.19086935 -11.45409229 4.19110491 -8.4375 3.125 C-7.22803711 2.66480469 -7.22803711 2.66480469 -5.99414062 2.1953125 C-4.00421696 1.44173194 -2.0030527 0.71795526 0 0 Z " fill="#1D1816" transform="translate(220,201)"/>
<path d="M0 0 C0.33 0.66 0.66 1.32 1 2 C4.02934491 2.65772428 4.02934491 2.65772428 7 3 C7.33 2.34 7.66 1.68 8 1 C8.33 2.98 8.66 4.96 9 7 C8.34 6.67 7.68 6.34 7 6 C7 5.34 7 4.68 7 4 C6.33613281 4.27714844 5.67226562 4.55429687 4.98828125 4.83984375 C4.10527344 5.20207031 3.22226563 5.56429688 2.3125 5.9375 C1.44238281 6.29714844 0.57226562 6.65679687 -0.32421875 7.02734375 C-2.88179265 7.9570312 -5.3221323 8.54162625 -8 9 C-8 8.34 -8 7.68 -8 7 C-6.68 7 -5.36 7 -4 7 C-4 6.34 -4 5.68 -4 5 C-6.31 5.33 -8.62 5.66 -11 6 C-7.58983503 3.13546142 -4.09305456 1.65296434 0 0 Z " fill="#D4AD4F" transform="translate(228,257)"/>
<path d="M0 0 C3.15204981 1.39347376 5.26171773 3.02485079 7.671875 5.4765625 C8.33574219 6.146875 8.99960937 6.8171875 9.68359375 7.5078125 C10.36550781 8.20648438 11.04742187 8.90515625 11.75 9.625 C12.44738281 10.33140625 13.14476562 11.0378125 13.86328125 11.765625 C15.58012488 13.50598703 17.29211832 15.25084981 19 17 C18.34 17.66 17.68 18.32 17 19 C15.29115995 17.37660195 13.62553283 15.70680947 12 14 C12 13.34 12 12.68 12 12 C10.35 12.66 8.7 13.32 7 14 C7.66 12.35 8.32 10.7 9 9 C8.443125 8.773125 7.88625 8.54625 7.3125 8.3125 C4.33840412 6.62449964 2.27991135 4.53323483 0 2 C0 1.34 0 0.68 0 0 Z " fill="#CDA84E" transform="translate(371,328)"/>
<path d="M0 0 C0.66 1.32 1.32 2.64 2 4 C-1.08809695 5.76462683 -2.23312136 6 -6 6 C-6 6.99 -6 7.98 -6 9 C-9.04386724 9.08226668 -11.07175348 8.97608217 -14 8 C-15.66621616 7.96125079 -17.33394172 7.9549714 -19 8 C-15.2099323 5.98774756 -11.23506993 4.44944162 -7.25 2.875 C-6.20392578 2.45927734 -6.20392578 2.45927734 -5.13671875 2.03515625 C-3.42510269 1.35519918 -1.71263536 0.67738563 0 0 Z " fill="#E1B04C" transform="translate(268,307)"/>
<path d="M0 0 C0.33 0 0.66 0 1 0 C1 3.3 1 6.6 1 10 C-0.98 10.99 -0.98 10.99 -3 12 C-3 11.01 -3 10.02 -3 9 C-3.33 9.66 -3.66 10.32 -4 11 C-8.75 11.125 -8.75 11.125 -11 10 C-11 9.34 -11 8.68 -11 8 C-8.83125748 8.50603992 -7.00032373 8.99983813 -5 10 C-5 7.03 -5 4.06 -5 1 C-3.68 1.33 -2.36 1.66 -1 2 C-0.67 1.34 -0.34 0.68 0 0 Z " fill="#D0A54B" transform="translate(194,252)"/>
<path d="M0 0 C0.33 0 0.66 0 1 0 C1 1.65 1 3.3 1 5 C1.66 5 2.32 5 3 5 C3.66 4.01 4.32 3.02 5 2 C5.10349817 8.41688675 4.74507544 14.62694402 4 21 C3.67 21 3.34 21 3 21 C3 17.04 3 13.08 3 9 C2.34 9 1.68 9 1 9 C0.67 12.96 0.34 16.92 0 21 C-0.33 21 -0.66 21 -1 21 C-1.02710123 18.4374282 -1.04688771 15.87514635 -1.0625 13.3125 C-1.07087891 12.59126953 -1.07925781 11.87003906 -1.08789062 11.12695312 C-1.10543632 7.28444618 -0.93524221 3.73360474 0 0 Z " fill="#D1AD52" transform="translate(192,221)"/>
<path d="M0 0 C0 0.66 0 1.32 0 2 C-1.32 2 -2.64 2 -4 2 C-4 2.99 -4 3.98 -4 5 C-13.41002278 8.25968109 -13.41002278 8.25968109 -18 9 C-18 8.34 -18 7.68 -18 7 C-16.824375 6.87625 -16.824375 6.87625 -15.625 6.75 C-14.75875 6.5025 -13.8925 6.255 -13 6 C-12.731875 5.360625 -12.46375 4.72125 -12.1875 4.0625 C-11 2 -11 2 -9.2109375 1.29296875 C-6.04833985 0.49369407 -3.27492828 0 0 0 Z " fill="#E0B247" transform="translate(224,262)"/>
<path d="M0 0 C0.33 0.66 0.66 1.32 1 2 C-0.32 2.99 -1.64 3.98 -3 5 C-2.01 5.33 -1.02 5.66 0 6 C-0.61875 6.45375 -1.2375 6.9075 -1.875 7.375 C-4.05919833 8.97108919 -4.05919833 8.97108919 -6 11 C-6 11.99 -6 12.98 -6 14 C-6.66 14 -7.32 14 -8 14 C-8 12.68 -8 11.36 -8 10 C-8.66 10 -9.32 10 -10 10 C-10 9.34 -10 8.68 -10 8 C-9.34 7.67 -8.68 7.34 -8 7 C-10.31 6.67 -12.62 6.34 -15 6 C-15 5.34 -15 4.68 -15 4 C-14.195625 4.268125 -13.39125 4.53625 -12.5625 4.8125 C-7.42318481 5.08299027 -4.22989525 2.71653273 0 0 Z " fill="#D3AC53" transform="translate(268,237)"/>
<path d="M0 0 C4.4062186 1.34634457 6.43077702 3.19374374 9 7 C9 7.66 9 8.32 9 9 C9.61875 9.309375 10.2375 9.61875 10.875 9.9375 C12.25 10.625 13.625 11.3125 15 12 C15 12.99 15 13.98 15 15 C16.32 15.66 17.64 16.32 19 17 C18.34 17.66 17.68 18.32 17 19 C14.15862758 16.21641519 11.32831845 13.42184273 8.5 10.625 C7.68917969 9.8309375 6.87835938 9.036875 6.04296875 8.21875 C4.89248047 7.07792969 4.89248047 7.07792969 3.71875 5.9140625 C3.00654297 5.2123291 2.29433594 4.5105957 1.56054688 3.78759766 C0 2 0 2 0 0 Z " fill="#CAA74F" transform="translate(348,371)"/>
<path d="M0 0 C5.29012124 4.40843437 10.18808428 9.07559794 15 14 C14.34 14.66 13.68 15.32 13 16 C12.01 16 11.02 16 10 16 C9.855625 15.401875 9.71125 14.80375 9.5625 14.1875 C9.1127561 12.43849596 8.57107659 10.71322977 8 9 C6.67696283 8.6278958 5.34262065 8.29369827 4 8 C3.33333333 6.66666667 2.66666667 5.33333333 2 4 C1.01 4.33 0.02 4.66 -1 5 C-0.67 3.35 -0.34 1.7 0 0 Z " fill="#D1AA4B" transform="translate(395,351)"/>
<path d="M0 0 C0.66 0 1.32 0 2 0 C2 3.3 2 6.6 2 10 C2.66 10 3.32 10 4 10 C3.67 9.01 3.34 8.02 3 7 C3.66 6.01 4.32 5.02 5 4 C5.268125 5.11375 5.53625 6.2275 5.8125 7.375 C6.65809019 11.21840951 6.65809019 11.21840951 10 13 C8.375 13.6875 8.375 13.6875 6 14 C2.75 12.5625 2.75 12.5625 0 11 C0 7.37 0 3.74 0 0 Z " fill="#1F1D1A" transform="translate(250,229)"/>
<path d="M0 0 C1.65 0 3.3 0 5 0 C4.67 3.63 4.34 7.26 4 11 C-0.94366102 9.02253559 -2.07854402 8.11167879 -5 4 C-2.525 4.495 -2.525 4.495 0 5 C0 3.35 0 1.7 0 0 Z " fill="#1A181A" transform="translate(185,251)"/>
<path d="M0 0 C2.93200474 2.85276137 5.64315404 5.65079784 8 9 C7.34 9.66 6.68 10.32 6 11 C7.65 12.98 9.3 14.96 11 17 C8 17 8 17 6.17578125 15.46875 C5.56089844 14.8190625 4.94601563 14.169375 4.3125 13.5 C3.68988281 12.8503125 3.06726563 12.200625 2.42578125 11.53125 C1.72001953 10.77328125 1.72001953 10.77328125 1 10 C1.99 9.34 2.98 8.68 4 8 C3.34 7.4225 2.68 6.845 2 6.25 C0 4 0 4 0 0 Z " fill="#C5A24A" transform="translate(148,224)"/>
<path d="M0 0 C0.99 0.33 1.98 0.66 3 1 C3.33 1.99 3.66 2.98 4 4 C5.65 4.33 7.3 4.66 9 5 C9.33 6.32 9.66 7.64 10 9 C7.36 8.67 4.72 8.34 2 8 C1.67 7.01 1.34 6.02 1 5 C0.01 4.67 -0.98 4.34 -2 4 C-2 3.01 -2 2.02 -2 1 C-1.34 0.67 -0.68 0.34 0 0 Z " fill="#E2B342" transform="translate(172,189)"/>
<path d="M0 0 C4.74316988 2.9342132 8.50197427 6.25265492 12.375 10.25 C12.92027344 10.80429687 13.46554687 11.35859375 14.02734375 11.9296875 C15.35622977 13.28188731 16.67878548 14.6403035 18 16 C17.34 16.66 16.68 17.32 16 18 C14.88020758 16.88020758 13.76110127 15.75972433 12.64453125 14.63671875 C11.4019315 13.40002209 10.14716167 12.17553706 8.88671875 10.95703125 C8.16097656 10.24933594 7.43523437 9.54164063 6.6875 8.8125 C5.64142578 7.80123047 5.64142578 7.80123047 4.57421875 6.76953125 C3 5 3 5 3 3 C2.01 2.67 1.02 2.34 0 2 C0 1.34 0 0.68 0 0 Z " fill="#C6A54F" transform="translate(353,310)"/>
<path d="M0 0 C7.15168515 0.49895478 13.41291281 3.31563815 20 6 C20 6.99 20 7.98 20 9 C19.34 9 18.68 9 18 9 C17.34 8.34 16.68 7.68 16 7 C12.00054632 6.02235577 8.97725259 5.94719784 5 7 C5 5.68 5 4.36 5 3 C2.525 2.01 2.525 2.01 0 1 C0 0.67 0 0.34 0 0 Z " fill="#1C181B" transform="translate(211,183)"/>
<path d="M0 0 C0.33 0 0.66 0 1 0 C0.67 7.92 0.34 15.84 0 24 C-0.33 24 -0.66 24 -1 24 C-1.84419939 19.58314879 -2.16322706 15.37034903 -2.1875 10.875 C-2.20167969 9.67617187 -2.21585937 8.47734375 -2.23046875 7.2421875 C-2.01401445 4.19715247 -1.60279273 2.54672995 0 0 Z " fill="#D7AC45" transform="translate(293,177)"/>
<path d="M0 0 C-3.62331363 2.41554242 -5.75001136 2.35289611 -10.0625 2.5625 C-14.69539273 2.63367711 -14.69539273 2.63367711 -19 4 C-20.99960012 4.039992 -23.00047242 4.04346799 -25 4 C-24.67 3.01 -24.34 2.02 -24 1 C-15.9874678 -0.03387512 -8.07094823 -0.10466648 0 0 Z " fill="#2E271A" transform="translate(223,76)"/>
<path d="M0 0 C0.66 0.66 1.32 1.32 2 2 C-0.4367713 10.92914798 -0.4367713 10.92914798 -4.26953125 13.5546875 C-6.49283644 14.51403493 -8.67308817 15.33374747 -11 16 C-11 15.01 -11 14.02 -11 13 C-9.1875 11.25 -9.1875 11.25 -7 10 C-6.01 10.33 -5.02 10.66 -4 11 C-4 10.01 -4 9.02 -4 8 C-3.34 8 -2.68 8 -2 8 C-2 5.69 -2 3.38 -2 1 C-1.34 0.67 -0.68 0.34 0 0 Z " fill="#1A1517" transform="translate(234,244)"/>
<path d="M0 0 C3.51506205 -0.17063408 6.63217616 -0.07626175 10 1 C12.34594307 3.74044023 13.63063699 6.68805224 15 10 C15.33 10.33 15.66 10.66 16 11 C16.04092937 13.33297433 16.04241723 15.66705225 16 18 C14.1290051 15.19350765 12.76982048 12.50039527 11.375 9.4375 C10.70597656 7.98150391 10.70597656 7.98150391 10.0234375 6.49609375 C9 4 9 4 9 2 C4.35413108 2.48484276 4.35413108 2.48484276 0 4 C0 2.68 0 1.36 0 0 Z " fill="#D4AF50" transform="translate(213,129)"/>
<path d="M0 0 C0.66 0.33 1.32 0.66 2 1 C2 1.66 2 2.32 2 3 C2.99 3 3.98 3 5 3 C4.67 5.64 4.34 8.28 4 11 C4.66 11 5.32 11 6 11 C6.33 14.96 6.66 18.92 7 23 C5.10621008 19.21242017 3.74046585 15.44692309 2.4375 11.4375 C2.21642578 10.76525391 1.99535156 10.09300781 1.76757812 9.40039062 C1.17612106 7.60100313 0.5878944 5.80055463 0 4 C-0.33 3.01 -0.66 2.02 -1 1 C-0.67 0.67 -0.34 0.34 0 0 Z " fill="#D6AE4F" transform="translate(330,149)"/>
<path d="M0 0 C0 0.99 0 1.98 0 3 C-1.2375 3.8971875 -1.2375 3.8971875 -2.5 4.8125 C-4.90968863 6.98461369 -5.01089913 8.1128381 -5.33203125 11.4375 C-5.31422758 14.96974855 -5.21467782 18.47451314 -5 22 C-8.13937304 18.31935575 -8.51856201 15.97193815 -8.35546875 11.25 C-7.64429814 6.74852448 -5.1521351 3.96011258 -1.75 1.125 C-1.1725 0.75375 -0.595 0.3825 0 0 Z " fill="#C8A654" transform="translate(141,136)"/>
<path d="M0 0 C-0.99 1.485 -0.99 1.485 -2 3 C-3.60568666 2.71682074 -5.20952047 2.42312209 -6.8125 2.125 C-7.70582031 1.96257812 -8.59914062 1.80015625 -9.51953125 1.6328125 C-12 1 -12 1 -15 -1 C-9.24494947 -3.80374257 -5.57861091 -2.30582584 0 0 Z " fill="#D6AE4A" transform="translate(188,333)"/>
<path d="M0 0 C2.9296875 0.390625 2.9296875 0.390625 5.859375 0.78125 C8.30458395 1.06777357 8.30458395 1.06777357 12 1 C12.99 1 13.98 1 15 1 C18 4.33333333 18 4.33333333 18 7 C12 5 6 3 0 1 C0 0.67 0 0.34 0 0 Z " fill="#241E1B" transform="translate(206,174)"/>
<path d="M0 0 C0.99 0.33 1.98 0.66 3 1 C0.6875 3.5 0.6875 3.5 -2 6 C-2.99 6 -3.98 6 -5 6 C-5 11.28 -5 16.56 -5 22 C-5.33 22 -5.66 22 -6 22 C-6 15.73 -6 9.46 -6 3 C-4.02 2.01 -2.04 1.02 0 0 Z " fill="#231D14" transform="translate(255,199)"/>
<path d="M0 0 C2.97 0.99 5.94 1.98 9 3 C9 3.33 9 3.66 9 4 C7.906875 3.95875 6.81375 3.9175 5.6875 3.875 C1.91107771 3.67925334 1.91107771 3.67925334 -1 6 C-0.34 6.66 0.32 7.32 1 8 C-0.98 8.99 -0.98 8.99 -3 10 C-3.66 9.01 -4.32 8.02 -5 7 C-3.35 4.69 -1.7 2.38 0 0 Z " fill="#171917" transform="translate(279,161)"/>
<path d="M0 0 C0.33 1.32 0.66 2.64 1 4 C0.34 4 -0.32 4 -1 4 C-1 4.66 -1 5.32 -1 6 C0.98 5.67 2.96 5.34 5 5 C5.33 5.99 5.66 6.98 6 8 C5.01 8 4.02 8 3 8 C1.42443294 8.45715936 -0.13800522 8.96104529 -1.6875 9.5 C-2.49574219 9.7784375 -3.30398437 10.056875 -4.13671875 10.34375 C-4.75160156 10.5603125 -5.36648437 10.776875 -6 11 C-6 10.34 -6 9.68 -6 9 C-5.01 9 -4.02 9 -3 9 C-3 8.34 -3 7.68 -3 7 C-3.66 6.34 -4.32 5.68 -5 5 C-3.35 4.34 -1.7 3.68 0 3 C0 2.01 0 1.02 0 0 Z " fill="#D2AA4E" transform="translate(204,118)"/>
<path d="M0 0 C1.65 1.32 3.3 2.64 5 4 C4.71125 4.556875 4.4225 5.11375 4.125 5.6875 C2.9586747 8.08494645 1.9660119 10.51596939 1 13 C0.814375 12.1646875 0.814375 12.1646875 0.625 11.3125 C-0.05976855 8.77885636 -0.99133763 6.42078968 -2 4 C-1.34 4 -0.68 4 0 4 C0 2.68 0 1.36 0 0 Z " fill="#111315" transform="translate(177,260)"/>
<path d="M0 0 C1.32 0.33 2.64 0.66 4 1 C3.875 2.875 3.875 2.875 3 5 C-0.17745463 6.38150201 -2.53122824 7 -6 7 C-5.67 6.01 -5.34 5.02 -5 4 C-3.66666667 3.66666667 -2.33333333 3.33333333 -1 3 C-0.67 2.01 -0.34 1.02 0 0 Z " fill="#E0B347" transform="translate(270,236)"/>
<path d="M0 0 C2.97202752 2.97202752 4.10156928 6.58867814 5.6875 10.4375 C6.02072266 11.21416016 6.35394531 11.99082031 6.69726562 12.79101562 C7.16229492 13.9134668 7.16229492 13.9134668 7.63671875 15.05859375 C8.06537231 16.08424438 8.06537231 16.08424438 8.50268555 17.13061523 C9 19 9 19 8 22 C6.5393715 19.35261084 6 18.10551666 6 15 C5.34 15 4.68 15 4 15 C3.79503906 14.43410156 3.59007812 13.86820313 3.37890625 13.28515625 C3.10949219 12.55167969 2.84007812 11.81820312 2.5625 11.0625 C2.29566406 10.33160156 2.02882812 9.60070312 1.75390625 8.84765625 C1.14613052 7.01694322 1.14613052 7.01694322 0 6 C-0.04080783 4.00041636 -0.04254356 1.99954746 0 0 Z " fill="#CCA94C" transform="translate(227,131)"/>
<path d="M0 0 C0.33 0.66 0.66 1.32 1 2 C1.66 2.33 2.32 2.66 3 3 C2.05125 3.7425 1.1025 4.485 0.125 5.25 C-2.39245499 7.33219408 -3.61522311 9.03262095 -5 12 C-7.125 13.75 -7.125 13.75 -9 15 C-9.66 14.67 -10.32 14.34 -11 14 C-10.45730469 13.40832031 -9.91460937 12.81664062 -9.35546875 12.20703125 C-8.64003906 11.41683594 -7.92460937 10.62664062 -7.1875 9.8125 C-6.47980469 9.03519531 -5.77210938 8.25789063 -5.04296875 7.45703125 C-3.06664371 5.08015085 -1.51417406 2.68921134 0 0 Z " fill="#D3B149" transform="translate(317,266)"/>
<path d="M0 0 C0.33 1.32 0.66 2.64 1 4 C0.38125 4.268125 -0.2375 4.53625 -0.875 4.8125 C-3.2995233 5.95556848 -3.2995233 5.95556848 -5 9 C-7.5 10.75 -7.5 10.75 -10 12 C-10.66 11.67 -11.32 11.34 -12 11 C-10.75323147 9.72599623 -9.5024352 8.45593346 -8.25 7.1875 C-7.55390625 6.47980469 -6.8578125 5.77210937 -6.140625 5.04296875 C-4.18571355 3.17724121 -2.19661447 1.56830358 0 0 Z " fill="#DAB64C" transform="translate(131,84)"/>
<path d="M0 0 C0.99 0 1.98 0 3 0 C4.52491998 3.04983996 4.23562548 5.6423369 4 9 C3.01 9.99 2.02 10.98 1 12 C0.67 8.04 0.34 4.08 0 0 Z " fill="#DBAC4D" transform="translate(76,211)"/>
<path d="M0 0 C1.75129657 1.10210905 3.50098464 2.20677432 5.25 3.3125 C6.22453125 3.92738281 7.1990625 4.54226563 8.203125 5.17578125 C10.54733713 6.70475759 12.78784032 8.28820977 15 10 C14.01 10 13.02 10 12 10 C11.34 10.66 10.68 11.32 10 12 C10 10.68 10 9.36 10 8 C7.03 7.505 7.03 7.505 4 7 C3.896875 6.360625 3.79375 5.72125 3.6875 5.0625 C3.460625 4.381875 3.23375 3.70125 3 3 C2.01 2.67 1.02 2.34 0 2 C0 1.34 0 0.68 0 0 Z " fill="#D1AE4E" transform="translate(143,294)"/>
<path d="M0 0 C6.40353322 -0.2361959 11.84629161 0.176679 18 2 C18 2.33 18 2.66 18 3 C15.75006641 3.02707139 13.50003905 3.04642829 11.25 3.0625 C9.99703125 3.07410156 8.7440625 3.08570312 7.453125 3.09765625 C4.71463499 3.02021027 2.58119707 2.82780815 0 2 C0 1.34 0 0.68 0 0 Z " fill="#1A1617" transform="translate(230,78)"/>
<path d="M0 0 C0.99 0.66 1.98 1.32 3 2 C-0.3 4.64 -3.6 7.28 -7 10 C-7 7 -7 7 -6 4 C-5.34 4 -4.68 4 -4 4 C-2.62689293 2.70766393 -1.28965176 1.37562854 0 0 Z " fill="#151617" transform="translate(293,288)"/>
<path d="M0 0 C0.99 0.33 1.98 0.66 3 1 C3.33 2.98 3.66 4.96 4 7 C2.68 7.33 1.36 7.66 0 8 C0 8.99 0 9.98 0 11 C-0.66 11 -1.32 11 -2 11 C-1.34 7.37 -0.68 3.74 0 0 Z " fill="#1A161C" transform="translate(313,220)"/>
<path d="M0 0 C2.00720923 0.28674418 4.0085944 0.61866701 6 1 C4.68 1.33 3.36 1.66 2 2 C2 2.66 2 3.32 2 4 C2.99 4.33 3.98 4.66 5 5 C6.32 5.66 7.64 6.32 9 7 C6.03 7 3.06 7 0 7 C-0.38133299 5.0085944 -0.71325582 3.00720923 -1 1 C-0.67 0.67 -0.34 0.34 0 0 Z " fill="#26211C" transform="translate(151,208)"/>
<path d="M0 0 C1.32 0.33 2.64 0.66 4 1 C4 1.99 4 2.98 4 4 C3.01 4 2.02 4 1 4 C1 10.6 1 17.2 1 24 C0.67 24 0.34 24 0 24 C0 16.08 0 8.16 0 0 Z " fill="#CCAA4A" transform="translate(244,203)"/>
<path d="M0 0 C0.33 0 0.66 0 1 0 C1.144375 1.2375 1.28875 2.475 1.4375 3.75 C1.71866672 6.05230718 2.04800803 8.18723131 2.625 10.4375 C2.74875 10.953125 2.8725 11.46875 3 12 C2.67 12.33 2.34 12.66 2 13 C1.76572222 15.01594582 1.58663876 17.038474 1.4375 19.0625 C1.35371094 20.16722656 1.26992187 21.27195313 1.18359375 22.41015625 C1.12300781 23.26480469 1.06242187 24.11945313 1 25 C0.67 25 0.34 25 0 25 C0 16.75 0 8.5 0 0 Z " fill="#2B2418" transform="translate(96,184)"/>
<path d="M0 0 C1.98 0.66 3.96 1.32 6 2 C4 4 4 4 0.875 4.125 C-0.07375 4.08375 -1.0225 4.0425 -2 4 C-2 4.66 -2 5.32 -2 6 C-1.34 6.33 -0.68 6.66 0 7 C0 8.32 0 9.64 0 11 C-0.66 11 -1.32 11 -2 11 C-2.66 8.69 -3.32 6.38 -4 4 C-2.68 2.68 -1.36 1.36 0 0 Z " fill="#211B17" transform="translate(231,125)"/>
<path d="M0 0 C3.58304256 2.68728192 6.28669253 5.44463159 9 9 C9.66 9.66 10.32 10.32 11 11 C9.02 11 7.04 11 5 11 C5 10.34 5 9.68 5 9 C4.34 8.67 3.68 8.34 3 8 C3 7.34 3 6.68 3 6 C2.505 5.34 2.01 4.68 1.5 4 C0 2 0 2 0 0 Z " fill="#D3AD4C" transform="translate(123,275)"/>
<path d="M0 0 C0.66 0.33 1.32 0.66 2 1 C2 2.98 2 4.96 2 7 C-0.70879335 8.35439668 -3.00933268 8.06501451 -6 8 C-4.02 5.36 -2.04 2.72 0 0 Z " fill="#DAAE4D" transform="translate(110,104)"/>
<path d="M0 0 C2.96175123 0.61277612 4.38058783 1.25372522 7 3 C3.49223216 4.60355101 0.85645121 5.22036864 -3 5 C-3.33 4.34 -3.66 3.68 -4 3 C-3.01 3 -2.02 3 -1 3 C-0.67 2.01 -0.34 1.02 0 0 Z " fill="#171719" transform="translate(247,310)"/>
<path d="M0 0 C-1.875 6.75 -1.875 6.75 -3 9 C-5.64 6.69 -8.28 4.38 -11 2 C-8 2 -8 2 -5 3 C-4.319375 2.2575 -4.319375 2.2575 -3.625 1.5 C-2 0 -2 0 0 0 Z " fill="#DAB050" transform="translate(133,301)"/>
<path d="M0 0 C1 3 1 3 -0.21484375 5.91796875 C-0.78332031 6.99691406 -1.35179687 8.07585937 -1.9375 9.1875 C-2.50339844 10.27417969 -3.06929688 11.36085938 -3.65234375 12.48046875 C-4.09707031 13.31191406 -4.54179687 14.14335937 -5 15 C-5.66 13.68 -6.32 12.36 -7 11 C-6.34 11 -5.68 11 -5 11 C-4.67 9.35 -4.34 7.7 -4 6 C-3.34 6 -2.68 6 -2 6 C-2 4.35 -2 2.7 -2 1 C-1.34 0.67 -0.68 0.34 0 0 Z " fill="#D2AF53" transform="translate(348,250)"/>
<path d="M0 0 C1.98 0.66 3.96 1.32 6 2 C4.6302836 5.99500618 2.74277578 8.80009492 0 12 C0 10.68 0 9.36 0 8 C0.66 8 1.32 8 2 8 C1.34 5.36 0.68 2.72 0 0 Z " fill="#221C1A" transform="translate(176,168)"/>
<path d="M0 0 C2.34765625 0.890625 2.34765625 0.890625 5.0625 2.25 C6.41021484 2.90742187 6.41021484 2.90742187 7.78515625 3.578125 C10 5 10 5 11 8 C6.52761347 6.58192622 2.28853694 4.88695626 -2 3 C-2 2.34 -2 1.68 -2 1 C-1.34 0.67 -0.68 0.34 0 0 Z " fill="#1A161D" transform="translate(248,124)"/>
<path d="M0 0 C1.32 0 2.64 0 4 0 C4.33 0.66 4.66 1.32 5 2 C6.98 1.67 8.96 1.34 11 1 C11 3.31 11 5.62 11 8 C9.16399255 6.85845641 7.33125195 5.71165684 5.5 4.5625 C4.4790625 3.92441406 3.458125 3.28632813 2.40625 2.62890625 C1.6121875 2.09136719 0.818125 1.55382812 0 1 C0 0.67 0 0.34 0 0 Z " fill="#D6AE4B" transform="translate(131,310)"/>
<path d="M0 0 C0.99 0.99 1.98 1.98 3 3 C2.01 3.66 1.02 4.32 0 5 C0.639375 5.268125 1.27875 5.53625 1.9375 5.8125 C4 7 4 7 5 10 C2 10 2 10 0.39453125 8.46875 C-0.12753906 7.8190625 -0.64960938 7.169375 -1.1875 6.5 C-1.71730469 5.8503125 -2.24710938 5.200625 -2.79296875 4.53125 C-3.19128906 4.0259375 -3.58960938 3.520625 -4 3 C-3.01 2.67 -2.02 2.34 -1 2 C-0.67 1.34 -0.34 0.68 0 0 Z " fill="#C9A54B" transform="translate(171,247)"/>
<path d="M0 0 C5.01113235 1.4317521 6.94469549 3.98445693 10 8 C9.01 8.495 9.01 8.495 8 9 C7.34 8.67 6.68 8.34 6 8 C5.34 9.32 4.68 10.64 4 12 C4.0825 10.7625 4.165 9.525 4.25 8.25 C4.2737948 4.89493302 4.19641677 4.24552096 2 1.5 C1.34 1.005 0.68 0.51 0 0 Z " fill="#CDA852" transform="translate(182,201)"/>
<path d="M0 0 C0.33 0.66 0.66 1.32 1 2 C2.98 2 4.96 2 7 2 C7.33 4.31 7.66 6.62 8 9 C4.7 7.02 1.4 5.04 -2 3 C-1.34 2.67 -0.68 2.34 0 2 C0 1.34 0 0.68 0 0 Z " fill="#1A191E" transform="translate(183,192)"/>
<path d="M0 0 C0.33 0 0.66 0 1 0 C1 1.65 1 3.3 1 5 C0.34 5 -0.32 5 -1 5 C-1.33 7.64 -1.66 10.28 -2 13 C-3.32 13.33 -4.64 13.66 -6 14 C-5.37720331 12.41579871 -4.75166599 10.83267469 -4.125 9.25 C-3.60292969 7.92742187 -3.60292969 7.92742187 -3.0703125 6.578125 C-2.1353291 4.3259752 -1.12219206 2.16350541 0 0 Z " fill="#1D1916" transform="translate(109,142)"/>
<path d="M0 0 C1.5159375 0.309375 1.5159375 0.309375 3.0625 0.625 C2.7325 1.285 2.4025 1.945 2.0625 2.625 C0.9796875 2.3775 0.9796875 2.3775 -0.125 2.125 C-3.01705635 2.30954326 -3.01705635 2.30954326 -4.27734375 4.40625 C-5.12872998 5.87612046 -5.94602587 7.36631175 -6.7265625 8.875 C-7.12617188 9.4525 -7.52578125 10.03 -7.9375 10.625 C-8.9275 10.625 -9.9175 10.625 -10.9375 10.625 C-5.17820022 0.82193654 -5.17820022 0.82193654 0 0 Z " fill="#1F1712" transform="translate(218.9375,130.375)"/>
<path d="M0 0 C0.66 0 1.32 0 2 0 C2 3.3 2 6.6 2 10 C1.01 10 0.02 10 -1 10 C-1.125 2.25 -1.125 2.25 0 0 Z " fill="#E6B03B" transform="translate(193,230)"/>
<path d="M0 0 C0.66 0.99 1.32 1.98 2 3 C1.34 3.66 0.68 4.32 0 5 C0.33 5.66 0.66 6.32 1 7 C-2.28976808 8.09658936 -3.71303767 7.79953138 -7 7 C-4.66666667 4.66666667 -2.33333333 2.33333333 0 0 Z " fill="#19181B" transform="translate(141,103)"/>
<path d="M0 0 C0.763125 0.495 1.52625 0.99 2.3125 1.5 C7.28101775 3.52109197 11.70651036 3.25431356 17 3 C17 3.66 17 4.32 17 5 C15.06263299 5.16820551 13.12510094 5.33451095 11.1875 5.5 C9.56908203 5.63921875 9.56908203 5.63921875 7.91796875 5.78125 C5 6 5 6 2 6 C2.33 5.01 2.66 4.02 3 3 C2.01 2.67 1.02 2.34 0 2 C0 1.34 0 0.68 0 0 Z " fill="#1D1612" transform="translate(182,287)"/>
<path d="M0 0 C2.475 0.495 2.475 0.495 5 1 C5 1.66 5 2.32 5 3 C8.96 3 12.92 3 17 3 C12.17590699 5.41204651 9.14420435 5.34976371 4 4 C1.4375 1.9375 1.4375 1.9375 0 0 Z " fill="#CFB151" transform="translate(288,232)"/>
<path d="M0 0 C0.33 0 0.66 0 1 0 C1 3.3 1 6.6 1 10 C-0.65 10.66 -2.3 11.32 -4 12 C-3.25 6.25 -3.25 6.25 -1 4 C-0.3574765 1.93125966 -0.3574765 1.93125966 0 0 Z " fill="#D3A742" transform="translate(297,199)"/>
<path d="M0 0 C0 0.66 0 1.32 0 2 C-5.24385089 3.7479503 -9.47322267 4.19392201 -15 4 C-12.3851183 2.25674553 -10.9946567 1.58412043 -8.0625 0.875 C-7.39347656 0.70742187 -6.72445312 0.53984375 -6.03515625 0.3671875 C-4 0 -4 0 0 0 Z " fill="#291E1C" transform="translate(194,79)"/>
<path d="M0 0 C2.31 0.33 4.62 0.66 7 1 C7 3.31 7 5.62 7 8 C1.125 3.375 1.125 3.375 0 0 Z " fill="#D9B048" transform="translate(106,285)"/>
<path d="M0 0 C0.66 0 1.32 0 2 0 C0.68775452 3.93673644 -0.91910327 6.22719294 -4 9 C-4.66 8.34 -5.32 7.68 -6 7 C-4.6875 4.5 -4.6875 4.5 -3 2 C-2.01 2 -1.02 2 0 2 C0 1.34 0 0.68 0 0 Z " fill="#D9AE4F" transform="translate(335,273)"/>
<path d="M0 0 C0.33 0.99 0.66 1.98 1 3 C1.99 3.66 2.98 4.32 4 5 C2.68 6.32 1.36 7.64 0 9 C0 7.68 0 6.36 0 5 C-0.66 5 -1.32 5 -2 5 C-2.33 5.99 -2.66 6.98 -3 8 C-3.66 7.67 -4.32 7.34 -5 7 C-3.35 4.69 -1.7 2.38 0 0 Z " fill="#D0AA4C" transform="translate(209,130)"/>
<path d="M0 0 C0.33 0.66 0.66 1.32 1 2 C0.34 2 -0.32 2 -1 2 C-0.67 3.65 -0.34 5.3 0 7 C-0.99 7.33 -1.98 7.66 -3 8 C-3 7.01 -3 6.02 -3 5 C-4.32 5.33 -5.64 5.66 -7 6 C-7.33 5.34 -7.66 4.68 -8 4 C-5.36 2.68 -2.72 1.36 0 0 Z " fill="#CDA949" transform="translate(192,126)"/>
<path d="M0 0 C0 0.99 0 1.98 0 3 C-4.55426184 5.66590937 -7.73946963 6.31563182 -13 6 C-10.25906335 4.1727089 -7.86174676 3.06301822 -4.8125 1.875 C-3.91144531 1.52179688 -3.01039063 1.16859375 -2.08203125 0.8046875 C-1.39496094 0.53914063 -0.70789063 0.27359375 0 0 Z " fill="#C9A84D" transform="translate(268,307)"/>
<path d="M0 0 C-1.26691507 0.67408308 -2.53870749 1.33900497 -3.8125 2 C-4.52019531 2.37125 -5.22789062 2.7425 -5.95703125 3.125 C-8 4 -8 4 -11 4 C-11 2.68 -11 1.36 -11 0 C-6.97959015 -0.69584017 -3.91736581 -1.1700097 0 0 Z " fill="#241E1B" transform="translate(215,264)"/>
<path d="M0 0 C0.33 0 0.66 0 1 0 C1.25 6.625 1.25 6.625 -1 10 C-1.99 10.495 -1.99 10.495 -3 11 C-4.60725635 7.78548731 -4.05748185 4.56387464 -4 1 C-3.67 1 -3.34 1 -3 1 C-2.67 2.65 -2.34 4.3 -2 6 C-1.34 4.02 -0.68 2.04 0 0 Z " fill="#E5B951" transform="translate(194,245)"/>
<path d="M0 0 C0.33 0 0.66 0 1 0 C1.3152595 5.98993047 0.68219822 9.63560356 -2 15 C-2.33 15 -2.66 15 -3 15 C-3 13.02 -3 11.04 -3 9 C-2.34 9 -1.68 9 -1 9 C-0.67 6.03 -0.34 3.06 0 0 Z " fill="#CCA53C" transform="translate(249,221)"/>
<path d="M0 0 C2.13586678 3.20380017 2.23132175 4.01939967 2.125 7.6875 C2.10695313 8.49574219 2.08890625 9.30398437 2.0703125 10.13671875 C2.04710937 10.75160156 2.02390625 11.36648437 2 12 C1.01 12.33 0.02 12.66 -1 13 C-0.67 8.71 -0.34 4.42 0 0 Z " fill="#BF9F47" transform="translate(338,208)"/>
<path d="M0 0 C0.33 0.66 0.66 1.32 1 2 C1.66 2.33 2.32 2.66 3 3 C1.68 3 0.36 3 -1 3 C0.32 4.65 1.64 6.3 3 8 C0.36 7.67 -2.28 7.34 -5 7 C-4.67 5.35 -4.34 3.7 -4 2 C-2.68 2 -1.36 2 0 2 C0 1.34 0 0.68 0 0 Z " fill="#D2A94F" transform="translate(259,193)"/>
<path d="M0 0 C3 2 3 2 3.8125 5.5 C3.874375 6.655 3.93625 7.81 4 9 C3.34 9.66 2.68 10.32 2 11 C-0.67927341 6.98108988 -0.15601248 4.75838077 0 0 Z " fill="#D6AD41" transform="translate(353,160)"/>
<path d="M0 0 C0.33 0 0.66 0 1 0 C1.33 3.96 1.66 7.92 2 12 C1.01 12.33 0.02 12.66 -1 13 C-1.33 10.69 -1.66 8.38 -2 6 C-1.34 6 -0.68 6 0 6 C0 4.02 0 2.04 0 0 Z " fill="#2B2322" transform="translate(274,146)"/>
<path d="M0 0 C0.66 0.33 1.32 0.66 2 1 C1.34 2.32 0.68 3.64 0 5 C-3.82097239 4.46930939 -6.06171403 3.50298434 -9 1 C-7.700625 1.020625 -6.40125 1.04125 -5.0625 1.0625 C-3.70834367 1.08399454 -2.35243917 1.07148199 -1 1 C-0.67 0.67 -0.34 0.34 0 0 Z " fill="#281F1D" transform="translate(278,136)"/>
<path d="M0 0 C2.31 0.33 4.62 0.66 7 1 C7.59732819 3.76264289 8 6.16032769 8 9 C6.66368764 7.6905332 5.33102075 6.37734515 4 5.0625 C3.2575 4.33160156 2.515 3.60070312 1.75 2.84765625 C0 1 0 1 0 0 Z " fill="#D6AF54" transform="translate(328,352)"/>
<path d="M0 0 C1.8871875 0.0309375 1.8871875 0.0309375 3.8125 0.0625 C3.8125 0.7225 3.8125 1.3825 3.8125 2.0625 C0.1825 2.3925 -3.4475 2.7225 -7.1875 3.0625 C-7.1875 2.4025 -7.1875 1.7425 -7.1875 1.0625 C-4.43671116 0.14557039 -2.82801087 -0.04636083 0 0 Z " fill="#D1AD44" transform="translate(247.1875,333.9375)"/>
<path d="M0 0 C2.31 0.66 4.62 1.32 7 2 C6.01 2.33 5.02 2.66 4 3 C4 3.66 4 4.32 4 5 C1.69 4.67 -0.62 4.34 -3 4 C-3 3.34 -3 2.68 -3 2 C-2.01 2 -1.02 2 0 2 C0 1.34 0 0.68 0 0 Z " fill="#DDAE4B" transform="translate(177,312)"/>
<path d="M0 0 C0.33 0 0.66 0 1 0 C1.18451025 11.52164009 1.18451025 11.52164009 0 17 C-2 15 -2 15 -2.125 11.875 C-2.08375 10.92625 -2.0425 9.9775 -2 9 C-1.34 9 -0.68 9 0 9 C0 6.03 0 3.06 0 0 Z " fill="#38322C" transform="translate(243,202)"/>
<path d="M0 0 C2.97 0.33 5.94 0.66 9 1 C2.6 4.2 2.6 4.2 0 5 C-0.99 4.34 -1.98 3.68 -3 3 C-2.01 2.67 -1.02 2.34 0 2 C0 1.34 0 0.68 0 0 Z " fill="#CCA845" transform="translate(223,182)"/>
<path d="M0 0 C1.48285242 0.95262034 2.96118201 1.91228405 4.4375 2.875 C5.67306641 3.67550781 5.67306641 3.67550781 6.93359375 4.4921875 C9 6 9 6 10 8 C6.20696275 6.99806563 3.28463659 6.18975773 0 4 C0 2.68 0 1.36 0 0 Z " fill="#D3AC4D" transform="translate(297,80)"/>
<path d="M0 0 C2.475 0.99 2.475 0.99 5 2 C3.68 2.33 2.36 2.66 1 3 C0.67 2.01 0.34 1.02 0 0 Z M-3 3 C-1.68 3 -0.36 3 1 3 C1 3.66 1 4.32 1 5 C2.32 5.66 3.64 6.32 5 7 C4.01 7.495 4.01 7.495 3 8 C0.98079663 6.69593116 -1.01924973 5.36176581 -3 4 C-3 3.67 -3 3.34 -3 3 Z " fill="#CEAB4F" transform="translate(226,233)"/>
<path d="M0 0 C2.0625 0.4375 2.0625 0.4375 4 1 C3.34 2.65 2.68 4.3 2 6 C-0.475 5.01 -0.475 5.01 -3 4 C-3 3.01 -3 2.02 -3 1 C-2.34 1 -1.68 1 -1 1 C-0.67 0.67 -0.34 0.34 0 0 Z " fill="#D5B04D" transform="translate(283,209)"/>
<path d="M0 0 C2.97 0.33 5.94 0.66 9 1 C9 1.33 9 1.66 9 2 C7.35 2 5.7 2 4 2 C3.67 2.66 3.34 3.32 3 4 C1.35636866 4.72159424 -0.31050386 5.39351421 -2 6 C-1.49396008 3.83125748 -1.00016187 2.00032373 0 0 Z " fill="#BE9946" transform="translate(143,163)"/>
<path d="M0 0 C0.33 0.99 0.66 1.98 1 3 C0.01 4.485 0.01 4.485 -1 6 C-3.31 5.67 -5.62 5.34 -8 5 C-5.44008376 2.98863724 -2.95409701 1.37154504 0 0 Z " fill="#1C1D18" transform="translate(204,126)"/>
<path d="M0 0 C0 3 0 3 -1 5 C-0.60061233 7.09821215 -0.60061233 7.09821215 0 9 C-0.5775 8.62875 -1.155 8.2575 -1.75 7.875 C-2.4925 7.58625 -3.235 7.2975 -4 7 C-6.12730285 7.89681416 -6.12730285 7.89681416 -8 9 C-7.04270084 7.87411986 -6.08412105 6.7493285 -5.125 5.625 C-4.59132812 4.99851562 -4.05765625 4.37203125 -3.5078125 3.7265625 C-2.38567993 2.44163349 -1.20628025 1.20628025 0 0 Z " fill="#231D17" transform="translate(133,110)"/>
<path d="M0 0 C0.66 0.33 1.32 0.66 2 1 C2 1.66 2 2.32 2 3 C1.34 3 0.68 3 0 3 C0.46800711 7.05606165 0.87953208 10.46588679 3 14 C2.01 14 1.02 14 0 14 C-1.24377393 11.51245214 -1.13306235 9.77344699 -1.125 7 C-1.12757813 6.113125 -1.13015625 5.22625 -1.1328125 4.3125 C-1 2 -1 2 0 0 Z " fill="#DEB553" transform="translate(285,215)"/>
<path d="M0 0 C0.66 0 1.32 0 2 0 C1.67 1.98 1.34 3.96 1 6 C0.34 6 -0.32 6 -1 6 C-1.33 6.99 -1.66 7.98 -2 9 C-2.66 8.34 -3.32 7.68 -4 7 C-3.34 5.35 -2.68 3.7 -2 2 C-1.34 2 -0.68 2 0 2 C0 1.34 0 0.68 0 0 Z " fill="#E5B43C" transform="translate(188,164)"/>
<path d="M0 0 C-1.44253657 3.36591866 -3.33264727 5.51047079 -6 8 C-6.36458333 3.50347222 -6.36458333 3.50347222 -4.6875 1.1875 C-3 0 -3 0 0 0 Z " fill="#CFAB4E" transform="translate(125,118)"/>
<path d="M0 0 C0.33 0 0.66 0 1 0 C1.50471197 1.76949612 2.00360685 3.54065223 2.5 5.3125 C2.7784375 6.29863281 3.056875 7.28476562 3.34375 8.30078125 C4 11 4 11 4 14 C0.08468337 8.89306527 -0.10265877 6.36484364 0 0 Z " fill="#C7A94D" transform="translate(318,332)"/>
<path d="M0 0 C3.94580104 0.43842234 6.38616645 1.19308322 10 3 C5.545 3.495 5.545 3.495 1 4 C0.34 3.01 -0.32 2.02 -1 1 C-0.67 0.67 -0.34 0.34 0 0 Z " fill="#1D1A21" transform="translate(286,234)"/>
<path d="M0 0 C1.65 0.33 3.3 0.66 5 1 C2.49751135 2.66832577 0.58850813 3.62381674 -2.1875 4.625 C-2.90292969 4.88539063 -3.61835938 5.14578125 -4.35546875 5.4140625 C-4.89816406 5.60742188 -5.44085938 5.80078125 -6 6 C-5.67 4.68 -5.34 3.36 -5 2 C-3.02 2.495 -3.02 2.495 -1 3 C-0.67 2.01 -0.34 1.02 0 0 Z " fill="#1F1A1A" transform="translate(221,192)"/>
<path d="M0 0 C0 0.99 0 1.98 0 3 C-0.99 3.66 -1.98 4.32 -3 5 C-3.72965366 7.56282742 -3.72965366 7.56282742 -4 10 C-4.99 9.01 -5.98 8.02 -7 7 C-5.66667905 3.00003714 -3.5042173 2.16217663 0 0 Z " fill="#271F15" transform="translate(264,171)"/>
<path d="M0 0 C0.99 0.33 1.98 0.66 3 1 C3 2.65 3 4.3 3 6 C2.01 6.495 2.01 6.495 1 7 C-1.03144641 6.06553465 -3.03533587 5.06775224 -5 4 C-4.01 3.67 -3.02 3.34 -2 3 C-1.34 3.33 -0.68 3.66 0 4 C0 2.68 0 1.36 0 0 Z " fill="#D2AD4E" transform="translate(164,155)"/>
<path d="M0 0 C3 0 3 0 5.75 2.25 C8 5 8 5 7.8125 7.3125 C7.4103125 8.1478125 7.4103125 8.1478125 7 9 C6.34 7.68 5.68 6.36 5 5 C4.34 5 3.68 5 3 5 C3 4.34 3 3.68 3 3 C2.01 2.67 1.02 2.34 0 2 C0 1.34 0 0.68 0 0 Z " fill="#C8A54F" transform="translate(299,107)"/>
<path d="M0 0 C2.875 0.625 2.875 0.625 6 2 C7.375 5.125 7.375 5.125 8 8 C6.85073734 7.04578192 5.70569459 6.08647955 4.5625 5.125 C3.92441406 4.59132813 3.28632813 4.05765625 2.62890625 3.5078125 C1 2 1 2 0 0 Z " fill="#D3AD52" transform="translate(339,363)"/>
<path d="M0 0 C1.32 0 2.64 0 4 0 C2.8141763 3.37503669 1.72426311 5.64722731 -1 8 C-0.67 5.36 -0.34 2.72 0 0 Z " fill="#CAA648" transform="translate(203,280)"/>
<path d="M0 0 C2.0625 0.4375 2.0625 0.4375 4 1 C3.67 1.66 3.34 2.32 3 3 C3.99 3.33 4.98 3.66 6 4 C5.01 5.485 5.01 5.485 4 7 C2.35 5.02 0.7 3.04 -1 1 C-0.67 0.67 -0.34 0.34 0 0 Z " fill="#262220" transform="translate(164,238)"/>
<path d="M0 0 C0.99 0.33 1.98 0.66 3 1 C3.33 2.98 3.66 4.96 4 7 C1.69 5.35 -0.62 3.7 -3 2 C-2.01 1.34 -1.02 0.68 0 0 Z " fill="#E0B042" transform="translate(155,233)"/>
<path d="M0 0 C0.33 0.66 0.66 1.32 1 2 C2.32 2 3.64 2 5 2 C4.67 3.32 4.34 4.64 4 6 C4.66 6.33 5.32 6.66 6 7 C5.01 7.33 4.02 7.66 3 8 C3 6.68 3 5.36 3 4 C1.35 4 -0.3 4 -2 4 C-1.34 2.68 -0.68 1.36 0 0 Z " fill="#CDA84F" transform="translate(172,186)"/>
<path d="M0 0 C2.31 0 4.62 0 7 0 C7 0.99 7 1.98 7 3 C4.69 3 2.38 3 0 3 C0 2.01 0 1.02 0 0 Z " fill="#E5B441" transform="translate(190,171)"/>
<path d="M0 0 C1.65 0 3.3 0 5 0 C0.375 4.875 0.375 4.875 -3 6 C-3.66 5.34 -4.32 4.68 -5 4 C-4.34 3.67 -3.68 3.34 -3 3 C-2.34 3.33 -1.68 3.66 -1 4 C-0.67 2.68 -0.34 1.36 0 0 Z " fill="#D1AB51" transform="translate(140,100)"/>
<path d="M0 0 C0.103125 0.639375 0.20625 1.27875 0.3125 1.9375 C0.539375 2.618125 0.76625 3.29875 1 4 C1.99 4.33 2.98 4.66 4 5 C2.25 5.75 2.25 5.75 0 6 C-2.25 4.0625 -2.25 4.0625 -4 2 C-2.68 1.34 -1.36 0.68 0 0 Z " fill="#1C1B1F" transform="translate(161,300)"/>
<path d="M0 0 C2 3 2 3 1.625 5.1875 C1.41875 5.785625 1.2125 6.38375 1 7 C0.01 6.67 -0.98 6.34 -2 6 C-2 5.34 -2 4.68 -2 4 C-2.66 3.67 -3.32 3.34 -4 3 C-2.68 2.01 -1.36 1.02 0 0 Z " fill="#D6AA4C" transform="translate(295,290)"/>
<path d="M0 0 C0.33 0 0.66 0 1 0 C1.08131463 1.43655854 1.13933559 2.8744483 1.1875 4.3125 C1.22230469 5.11300781 1.25710938 5.91351563 1.29296875 6.73828125 C0.93801608 9.47851584 0.10633718 10.29171079 -2 12 C-2.66 11.67 -3.32 11.34 -4 11 C-3.525625 10.29875 -3.05125 9.5975 -2.5625 8.875 C-0.91260143 5.83918663 -0.39631536 3.40831214 0 0 Z " fill="#1E1714" transform="translate(305,148)"/>
<path d="M0 0 C1.60725635 3.21451269 1.05748185 6.43612536 1 10 C0.01 10.495 0.01 10.495 -1 11 C-1 9.35 -1 7.7 -1 6 C-1.66 6 -2.32 6 -3 6 C-1.125 1.125 -1.125 1.125 0 0 Z " fill="#CCA94E" transform="translate(203,139)"/>
<path d="M0 0 C2.475 0.99 2.475 0.99 5 2 C5.33 4.31 5.66 6.62 6 9 C3.525 8.01 3.525 8.01 1 7 C1.66 6.67 2.32 6.34 3 6 C2.2575 5.071875 2.2575 5.071875 1.5 4.125 C0 2 0 2 0 0 Z " fill="#C5A248" transform="translate(256,131)"/>
<path d="M0 0 C0.99 0.33 1.98 0.66 3 1 C3 1.66 3 2.32 3 3 C3.99 3.33 4.98 3.66 6 4 C6.33 5.98 6.66 7.96 7 10 C4.3513141 6.80331012 2.06007659 3.60513403 0 0 Z " fill="#CFAD57" transform="translate(314,124)"/>
<path d="M0 0 C3.16115776 1.36983503 3.9927092 1.9890638 6 5 C5.01 5 4.02 5 3 5 C3 4.34 3 3.68 3 3 C1.02 3.99 -0.96 4.98 -3 6 C-2 4 -1 2 0 0 Z " fill="#171617" transform="translate(293,104)"/>
<path d="M0 0 C2.97 0.495 2.97 0.495 6 1 C6.33 2.98 6.66 4.96 7 7 C5.83040013 6.02433888 4.66438823 5.044375 3.5 4.0625 C2.8503125 3.51722656 2.200625 2.97195313 1.53125 2.41015625 C1.0259375 1.94480469 0.520625 1.47945313 0 1 C0 0.67 0 0.34 0 0 Z " fill="#DEB551" transform="translate(389,412)"/>
<path d="M0 0 C0.99 0.495 0.99 0.495 2 1 C2 1.66 2 2.32 2 3 C2.94875 2.484375 3.8975 1.96875 4.875 1.4375 C5.90625 0.963125 6.9375 0.48875 8 0 C8.66 0.33 9.32 0.66 10 1 C8.875 2.5 8.875 2.5 7 4 C3.8125 4.1875 3.8125 4.1875 1 4 C0.67 2.68 0.34 1.36 0 0 Z " fill="#D2AB4F" transform="translate(202,265)"/>
<path d="M0 0 C0.33 0.99 0.66 1.98 1 3 C-0.8125 5.6875 -0.8125 5.6875 -3 8 C-3.66 8 -4.32 8 -5 8 C-5 7.01 -5 6.02 -5 5 C-4.01 5 -3.02 5 -2 5 C-2 4.34 -2 3.68 -2 3 C-2.66 2.67 -3.32 2.34 -4 2 C-2.68 2 -1.36 2 0 2 C0 1.34 0 0.68 0 0 Z " fill="#CFA950" transform="translate(261,259)"/>
<path d="M0 0 C0.598125 0.226875 1.19625 0.45375 1.8125 0.6875 C1.8125 1.3475 1.8125 2.0075 1.8125 2.6875 C-1.6525 4.1725 -1.6525 4.1725 -5.1875 5.6875 C-5.1875 2.6875 -5.1875 2.6875 -3.9375 0.9375 C-2.1875 -0.3125 -2.1875 -0.3125 0 0 Z " fill="#24201C" transform="translate(228.1875,254.3125)"/>
<path d="M0 0 C3.37503669 1.1858237 5.64722731 2.27573689 8 5 C5.16032769 5 2.76264289 4.59732819 0 4 C0 2.68 0 1.36 0 0 Z " fill="#261C15" transform="translate(197,221)"/>
<path d="M0 0 C0.99 1.32 1.98 2.64 3 4 C1.02 4.33 -0.96 4.66 -3 5 C-3 4.01 -3 3.02 -3 2 C-2.01 1.34 -1.02 0.68 0 0 Z " fill="#151818" transform="translate(157,204)"/>
<path d="M0 0 C5.39449293 -0.27429625 8.51925805 -0.36055646 13 3 C9.25 4.125 9.25 4.125 7 3 C7 2.34 7 1.68 7 1 C4.69 1 2.38 1 0 1 C0 0.67 0 0.34 0 0 Z " fill="#DDB458" transform="translate(145,135)"/>
<path d="M0 0 C3.3 0.33 6.6 0.66 10 1 C10.33 2.32 10.66 3.64 11 5 C10.34 4.67 9.68 4.34 9 4 C9 3.34 9 2.68 9 2 C4.35413108 2.48484276 4.35413108 2.48484276 0 4 C0 2.68 0 1.36 0 0 Z " fill="#CEAD5B" transform="translate(213,129)"/>
<path d="M0 0 C1.875 0.625 1.875 0.625 4 2 C5.25 5.125 5.25 5.125 6 8 C1.3125 4.38671875 1.3125 4.38671875 0 3 C0 2.01 0 1.02 0 0 Z " fill="#D4B04A" transform="translate(307,114)"/>
<path d="M0 0 C3.91402949 1.26941497 5.79072873 2.51167694 8 6 C5 6 5 6 3.61328125 4.6875 C2.40885417 3.125 1.20442708 1.5625 0 0 Z " fill="#BB9C4C" transform="translate(371,395)"/>
<path d="M0 0 C1.98 0 3.96 0 6 0 C6.33 1.32 6.66 2.64 7 4 C4 4 4 4 1.8125 2 C1.214375 1.34 0.61625 0.68 0 0 Z " fill="#23191F" transform="translate(140,291)"/>
<path d="M0 0 C1.32 0.33 2.64 0.66 4 1 C4 2.32 4 3.64 4 5 C4.66 5 5.32 5 6 5 C5.67 5.99 5.34 6.98 5 8 C4.16382818 6.8562364 3.33113541 5.70992861 2.5 4.5625 C2.0359375 3.92441406 1.571875 3.28632813 1.09375 2.62890625 C0 1 0 1 0 0 Z " fill="#D0AD50" transform="translate(98,274)"/>
<path d="M0 0 C3.36720387 1.39332574 4.9859524 2.9789286 7 6 C4 6 4 6 1.8125 4.125 C0 2 0 2 0 0 Z " fill="#29211C" transform="translate(157,242)"/>
<path d="M0 0 C1.3609623 2.7219246 0.70366248 4.1831957 0.0625 7.125 C-0.13214844 8.03507813 -0.32679687 8.94515625 -0.52734375 9.8828125 C-0.68332031 10.58148438 -0.83929688 11.28015625 -1 12 C-1.33 12 -1.66 12 -2 12 C-2.33 8.7 -2.66 5.4 -3 2 C-2.01 1.34 -1.02 0.68 0 0 Z " fill="#16110A" transform="translate(122,207)"/>
<path d="M0 0 C0.66 0 1.32 0 2 0 C2 0.66 2 1.32 2 2 C2.66 2 3.32 2 4 2 C3.67 2.99 3.34 3.98 3 5 C2.01 5.33 1.02 5.66 0 6 C-0.66 5.34 -1.32 4.68 -2 4 C-1.34 2.68 -0.68 1.36 0 0 Z " fill="#DAB145" transform="translate(212,199)"/>
<path d="M0 0 C0.66 0.33 1.32 0.66 2 1 C1.67 2.65 1.34 4.3 1 6 C-0.32 6 -1.64 6 -3 6 C-3 3 -3 3 -1.5 1.3125 C-0.7575 0.6628125 -0.7575 0.6628125 0 0 Z " fill="#E7B340" transform="translate(176,182)"/>
<path d="M0 0 C6.75 -0.125 6.75 -0.125 9 1 C9 1.66 9 2.32 9 3 C2.25 2.25 2.25 2.25 0 0 Z " fill="#E7B041" transform="translate(214,181)"/>
<path d="M0 0 C0.33 0 0.66 0 1 0 C1.1875 3.375 1.1875 3.375 1 7 C0.01 7.66 -0.98 8.32 -2 9 C-1.125 1.125 -1.125 1.125 0 0 Z " fill="#2F221F" transform="translate(99,171)"/>
<path d="M0 0 C0 0.66 0 1.32 0 2 C0.66 2.33 1.32 2.66 2 3 C1.67 3.66 1.34 4.32 1 5 C-1.31 4.34 -3.62 3.68 -6 3 C-2.25 0 -2.25 0 0 0 Z " fill="#26211A" transform="translate(199,167)"/>
<path d="M0 0 C0.66 0 1.32 0 2 0 C2 0.66 2 1.32 2 2 C2.66 2 3.32 2 4 2 C4 3.98 4 5.96 4 8 C3.67 7.34 3.34 6.68 3 6 C2.01 5.67 1.02 5.34 0 5 C0.99 5 1.98 5 3 5 C2.01 4.67 1.02 4.34 0 4 C0 2.68 0 1.36 0 0 Z " fill="#E6B146" transform="translate(237,161)"/>
<path d="M0 0 C1.65 0 3.3 0 5 0 C5.66 1.32 6.32 2.64 7 4 C5.68 4 4.36 4 3 4 C1.25 2 1.25 2 0 0 Z " fill="#D3AC50" transform="translate(136,158)"/>
<path d="M0 0 C0.33 0 0.66 0 1 0 C1 2.31 1 4.62 1 7 C-0.98 7.66 -2.96 8.32 -5 9 C-5 8.01 -5 7.02 -5 6 C-3.35 6 -1.7 6 0 6 C0 4.02 0 2.04 0 0 Z " fill="#1C1510" transform="translate(203,114)"/>
<path d="M0 0 C2.97 0.495 2.97 0.495 6 1 C4.71034824 2.37562854 3.37310707 3.70766393 2 5 C1.34 5 0.68 5 0 5 C0 3.35 0 1.7 0 0 Z " fill="#DAAF4C" transform="translate(152,90)"/>
<path d="M0 0 C0.33 1.32 0.66 2.64 1 4 C-0.98 4.99 -0.98 4.99 -3 6 C-3.66 5.34 -4.32 4.68 -5 4 C-3.35 2.68 -1.7 1.36 0 0 Z " fill="#D3AB4A" transform="translate(131,84)"/>
<path d="M0 0 C-3.4352048 2.29013653 -4.985331 2.17842973 -9 2 C-9.33 1.34 -9.66 0.68 -10 0 C-6.33694766 -0.74926071 -3.57644848 -1.2380014 0 0 Z " fill="#CEA94C" transform="translate(199,58)"/>
<path d="M0 0 C0.99 0 1.98 0 3 0 C2.34 1.65 1.68 3.3 1 5 C0.34 5 -0.32 5 -1 5 C-1 4.34 -1 3.68 -1 3 C-1.99 2.67 -2.98 2.34 -4 2 C-3.34 1.67 -2.68 1.34 -2 1 C-1.34 1.33 -0.68 1.66 0 2 C0 1.34 0 0.68 0 0 Z " fill="#D1A84C" transform="translate(314,313)"/>
<path d="M0 0 C1.98 0.66 3.96 1.32 6 2 C5.67 2.66 5.34 3.32 5 4 C3.35 4 1.7 4 0 4 C0 2.68 0 1.36 0 0 Z " fill="#D7AF4B" transform="translate(347,308)"/>
<path d="M0 0 C0 0.66 0 1.32 0 2 C-1.32 2 -2.64 2 -4 2 C-4 2.66 -4 3.32 -4 4 C-5.32 3.67 -6.64 3.34 -8 3 C-8 2.34 -8 1.68 -8 1 C-5.23735711 0.40267181 -2.83967231 0 0 0 Z " fill="#E7B238" transform="translate(224,262)"/>
<path d="M0 0 C1.65 1.32 3.3 2.64 5 4 C4.67 4.99 4.34 5.98 4 7 C2 5.75 2 5.75 0 4 C0 2.68 0 1.36 0 0 Z M-2 4 C0 5 0 5 0 5 Z " fill="#25201A" transform="translate(177,260)"/>
<path d="M0 0 C2.475 0.495 2.475 0.495 5 1 C5 2.32 5 3.64 5 5 C4.01 5 3.02 5 2 5 C1.34 3.35 0.68 1.7 0 0 Z " fill="#0A1029" transform="translate(172,244)"/>
<path d="M0 0 C1.32 0 2.64 0 4 0 C4 0.66 4 1.32 4 2 C4.66 2 5.32 2 6 2 C6 2.99 6 3.98 6 5 C4 4 2 3 0 2 C0 1.34 0 0.68 0 0 Z " fill="#E7B040" transform="translate(227,236)"/>
<path d="M0 0 C2.1875 0.3125 2.1875 0.3125 4 1 C4 1.99 4 2.98 4 4 C1.69 3.67 -0.62 3.34 -3 3 C-1.75 1.4375 -1.75 1.4375 0 0 Z " fill="#E5B43C" transform="translate(228,184)"/>
<path d="M0 0 C0.66 0 1.32 0 2 0 C5 3.46153846 5 3.46153846 5 6 C4.01 6 3.02 6 2 6 C2 5.34 2 4.68 2 4 C1.34 4 0.68 4 0 4 C0 2.68 0 1.36 0 0 Z " fill="#E5B344" transform="translate(254,131)"/>
</svg>
